<svg width="40" height="40" viewBox="0 0 40 40" fill="none" xmlns="http://www.w3.org/2000/svg">
<circle cx="20" cy="20" r="18.3352" fill="white"/>
<path d="M15.5021 23.0021H12.5021C12.2369 23.0021 11.9825 22.8967 11.795 22.7092C11.6074 22.5216 11.5021 22.2673 11.5021 22.0021V14.0021C11.5021 13.7369 11.6074 13.4825 11.795 13.295C11.9825 13.1074 12.2369 13.0021 12.5021 13.0021H24.5021C24.7673 13.0021 25.0216 13.1074 25.2092 13.295C25.3967 13.4825 25.5021 13.7369 25.5021 14.0021V17.0021" stroke="#265B9F" stroke-linecap="round" stroke-linejoin="round"/>
<path d="M15.5021 18.0021C15.5021 17.7369 15.6074 17.4825 15.795 17.295C15.9825 17.1074 16.2369 17.0021 16.5021 17.0021H28.5021C28.7673 17.0021 29.0216 17.1074 29.2092 17.295C29.3967 17.4825 29.5021 17.7369 29.5021 18.0021V26.0021C29.5021 26.2673 29.3967 26.5216 29.2092 26.7092C29.0216 26.8967 28.7673 27.0021 28.5021 27.0021H16.5021C16.2369 27.0021 15.9825 26.8967 15.795 26.7092C15.6074 26.5216 15.5021 26.2673 15.5021 26.0021V18.0021Z" stroke="#265B9F" stroke-linecap="round" stroke-linejoin="round"/>
<path d="M20.5021 22.0021C20.5021 22.5325 20.7128 23.0412 21.0879 23.4163C21.4629 23.7914 21.9716 24.0021 22.5021 24.0021C23.0325 24.0021 23.5412 23.7914 23.9163 23.4163C24.2914 23.0412 24.5021 22.5325 24.5021 22.0021C24.5021 21.4716 24.2914 20.9629 23.9163 20.5879C23.5412 20.2128 23.0325 20.0021 22.5021 20.0021C21.9716 20.0021 21.4629 20.2128 21.0879 20.5879C20.7128 20.9629 20.5021 21.4716 20.5021 22.0021Z" stroke="#265B9F" stroke-linecap="round" stroke-linejoin="round"/>
</svg>
