<svg width="40" height="40" viewBox="0 0 40 40" fill="none" xmlns="http://www.w3.org/2000/svg">
<circle cx="20" cy="20" r="18.3352" fill="white"/>
<path d="M20.5021 12.0021V10.0021M20.5021 30.0021V28.0021M12.5021 20.0021H10.5021M30.5021 20.0021H28.5021M14.8421 25.6621L13.4321 27.0721M27.5721 12.9321L26.1621 14.3421M26.1621 25.6621L27.5721 27.0721M13.4321 12.9321L14.8421 14.3421M24.5021 20.0021C24.5021 21.0629 24.0806 22.0804 23.3305 22.8305C22.5804 23.5806 21.5629 24.0021 20.5021 24.0021C19.4412 24.0021 18.4238 23.5806 17.6736 22.8305C16.9235 22.0804 16.5021 21.0629 16.5021 20.0021C16.5021 18.9412 16.9235 17.9238 17.6736 17.1736C18.4238 16.4235 19.4412 16.0021 20.5021 16.0021C21.5629 16.0021 22.5804 16.4235 23.3305 17.1736C24.0806 17.9238 24.5021 18.9412 24.5021 20.0021Z" stroke="#265B9F" stroke-width="1.5" stroke-miterlimit="10" stroke-linecap="round"/>
</svg>
