<svg width="40" height="40" viewBox="0 0 40 40" fill="none" xmlns="http://www.w3.org/2000/svg">
<circle cx="20.0001" cy="20" r="18.3352" fill="#ED8946"/>
<path d="M31.0021 20.002L28.5621 17.222L28.9021 13.542L25.2921 12.722L23.4021 9.54199L20.0021 11.002L16.6021 9.54199L14.7121 12.722L11.1021 13.532L11.4421 17.212L9.00208 20.002L11.4421 22.782L11.1021 26.472L14.7121 27.292L16.6021 30.472L20.0021 29.002L23.4021 30.462L25.2921 27.282L28.9021 26.462L28.5621 22.782L31.0021 20.002ZM18.0021 25.002L14.0021 21.002L15.4121 19.592L18.0021 22.172L24.5921 15.582L26.0021 17.002L18.0021 25.002Z" fill="white"/>
</svg>
