<svg width="40" height="40" viewBox="0 0 40 40" fill="none" xmlns="http://www.w3.org/2000/svg">
<circle cx="20" cy="20" r="18.3352" fill="#ED8946"/>
<g clip-path="url(#clip0_79_1153)">
<path d="M30.4502 10.0519H31.5021V15.2906H30.4502V10.0519ZM16.8377 15.2906V10.0519H17.8827V11.0969H18.9277V10.0519H21.0246V12.1487H22.0696V10.0519H24.1665V11.0969H25.2183V10.0519H27.3083V12.1487H28.3602V10.0519H30.4502V9H13.689V10.0519H15.7858V15.2906H10.5471V13.1937H9.50208V29.955H10.5471V27.8581H12.644V26.8131H10.5471V24.7163H11.599V23.6713H10.5471V21.5744H12.644V20.5294H10.5471V18.4325H11.599V17.3875H10.5471V16.3356H15.7858V29.955H16.8377V16.3356H30.4502V15.2906H16.8377ZM10.5471 29.955H15.7858V31H10.5471V29.955Z" fill="white"/>
<path d="M12.644 10.0518H13.689V11.0968H12.644V10.0518ZM11.599 11.0968H12.644V12.1486H11.599V11.0968ZM10.5471 12.1486H11.599V13.1936H10.5471V12.1486Z" fill="white"/>
</g>
<defs>
<clipPath id="clip0_79_1153">
<rect width="22" height="22" fill="white" transform="translate(9.50208 9)"/>
</clipPath>
</defs>
</svg>
