<svg width="40" height="40" viewBox="0 0 40 40" fill="none" xmlns="http://www.w3.org/2000/svg">
<circle cx="20" cy="20" r="18.3352" fill="#ED8946"/>
<path opacity="0.2" d="M26.3771 17.9375C26.3771 21.375 25.1361 24.125 22.2521 27.5625C21.5586 28.4021 20.676 28.9375 19.5021 28.9375C18.4992 28.9375 17.5374 28.5391 16.8283 27.83C16.1192 27.1209 15.7208 26.1591 15.7208 25.1562C15.7208 21.5907 12.6271 22.75 12.6271 17.9375C12.6271 16.1141 13.3514 14.3655 14.6407 13.0761C15.93 11.7868 17.6787 11.0625 19.5021 11.0625C21.3254 11.0625 23.0741 11.7868 24.3634 13.0761C25.6527 14.3655 26.3771 16.1141 26.3771 17.9375Z" fill="white"/>
<path d="M27.0646 17.9375C27.0646 18.1198 26.9921 18.2947 26.8632 18.4236C26.7343 18.5526 26.5594 18.625 26.3771 18.625C26.1947 18.625 26.0199 18.5526 25.8909 18.4236C25.762 18.2947 25.6896 18.1198 25.6896 17.9375C25.6896 16.2965 25.0377 14.7227 23.8773 13.5623C22.7169 12.4019 21.1431 11.75 19.5021 11.75C17.861 11.75 16.2872 12.4019 15.1269 13.5623C13.9665 14.7227 13.3146 16.2965 13.3146 17.9375C13.3146 20.232 14.0476 20.9384 14.8245 21.6878C15.567 22.4062 16.4083 23.2149 16.4083 25.1562C16.4083 25.9768 16.7343 26.7637 17.3145 27.3439C17.8947 27.9241 18.6816 28.25 19.5021 28.25C20.3821 28.25 21.0876 27.8925 21.7218 27.1251C21.7786 27.0535 21.8491 26.994 21.9292 26.9499C22.0093 26.9059 22.0974 26.8783 22.1882 26.8687C22.2791 26.8592 22.371 26.8678 22.4585 26.8941C22.546 26.9205 22.6274 26.964 22.6979 27.0221C22.7684 27.0803 22.8265 27.1519 22.869 27.2328C22.9115 27.3137 22.9375 27.4023 22.9453 27.4933C22.9532 27.5843 22.9428 27.676 22.9148 27.763C22.8868 27.85 22.8418 27.9305 22.7823 27.9999C21.892 29.0784 20.7911 29.625 19.5021 29.625C18.3173 29.6236 17.1815 29.1524 16.3437 28.3146C15.5059 27.4769 15.0347 26.341 15.0333 25.1562C15.0333 23.7993 14.5452 23.3284 13.8697 22.6778C13.0104 21.8477 11.9396 20.8164 11.9396 17.9375C11.9396 15.9318 12.7363 14.0082 14.1546 12.59C15.5728 11.1718 17.4964 10.375 19.5021 10.375C21.5078 10.375 23.4313 11.1718 24.8496 12.59C26.2678 14.0082 27.0646 15.9318 27.0646 17.9375ZM23.7878 22.8428C23.7096 22.7975 23.6232 22.768 23.5336 22.7561C23.4441 22.7442 23.353 22.75 23.2657 22.7733C23.1783 22.7966 23.0965 22.8369 23.0247 22.8919C22.953 22.9469 22.8928 23.0155 22.8476 23.0938C22.772 23.2249 22.6552 23.3274 22.5153 23.3854C22.3755 23.4433 22.2204 23.4535 22.0742 23.4143C21.9279 23.3752 21.7987 23.2888 21.7066 23.1687C21.6144 23.0486 21.5645 22.9014 21.5646 22.75C21.5646 21.9482 21.9788 21.3956 22.4583 20.7563C23.0057 20.0258 23.6271 19.1982 23.6271 17.9375C23.6271 16.8435 23.1925 15.7943 22.4189 15.0207C21.6453 14.2471 20.5961 13.8125 19.5021 13.8125C18.4081 13.8125 17.3588 14.2471 16.5853 15.0207C15.8117 15.7943 15.3771 16.8435 15.3771 17.9375C15.3771 18.1198 15.4495 18.2947 15.5784 18.4236C15.7074 18.5526 15.8822 18.625 16.0646 18.625C16.2469 18.625 16.4218 18.5526 16.5507 18.4236C16.6796 18.2947 16.7521 18.1198 16.7521 17.9375C16.7521 17.2082 17.0418 16.5087 17.5575 15.993C18.0733 15.4772 18.7727 15.1875 19.5021 15.1875C20.2314 15.1875 20.9309 15.4772 21.4466 15.993C21.9623 16.5087 22.2521 17.2082 22.2521 17.9375C22.2521 18.7393 21.8379 19.2919 21.3583 19.9312C20.8109 20.6617 20.1896 21.4893 20.1896 22.75C20.1897 23.2039 20.3396 23.6451 20.616 24.0051C20.8923 24.3652 21.2798 24.624 21.7182 24.7415C22.1566 24.859 22.6216 24.8286 23.041 24.655C23.4604 24.4814 23.8108 24.1743 24.0379 23.7812C24.1289 23.6236 24.1538 23.4363 24.1069 23.2603C24.06 23.0844 23.9452 22.9342 23.7878 22.8428Z" fill="white"/>
</svg>
