<svg width="40" height="40" viewBox="0 0 40 40" fill="none" xmlns="http://www.w3.org/2000/svg">
<circle cx="20" cy="20" r="18.3352" fill="#F2F6F9"/>
<g clip-path="url(#clip0_79_707)">
<path d="M25.5021 25.5021H21.3771V13.1271H25.5021V25.5021ZM22.7521 14.5021V24.1271H24.1271V14.5021H22.7521ZM20.0021 25.5021H15.8771V15.8771H20.0021V25.5021ZM17.2521 17.2521V24.1271H18.6271V17.2521H17.2521ZM10.3771 9.00208H29.6271V29.6271H10.3771V25.5021H9.00208V24.1271H10.3771V15.8771H9.00208V14.5021H10.3771V9.00208ZM28.2521 28.2521V10.3771H11.7521V14.5021H13.1271V15.8771H11.7521V24.1271H13.1271V25.5021H11.7521V28.2521H28.2521Z" fill="#265B9F"/>
</g>
<defs>
<clipPath id="clip0_79_707">
<rect width="22" height="22" fill="white" transform="translate(9.00208 9.00208)"/>
</clipPath>
</defs>
</svg>
