<svg width="40" height="40" viewBox="0 0 40 40" fill="none" xmlns="http://www.w3.org/2000/svg">
<circle cx="20" cy="20" r="18.3352" fill="#ED8946"/>
<path d="M20.0021 10.002C14.4881 10.002 10.0021 14.488 10.0021 20.002V24.145C10.0021 25.169 10.8991 26.002 12.0021 26.002H13.0021C13.2673 26.002 13.5216 25.8966 13.7092 25.7091C13.8967 25.5215 14.0021 25.2672 14.0021 25.002V19.859C14.0021 19.5937 13.8967 19.3394 13.7092 19.1518C13.5216 18.9643 13.2673 18.859 13.0021 18.859H12.0941C12.6501 14.989 15.9801 12.002 20.0021 12.002C24.0241 12.002 27.3541 14.989 27.9101 18.859H27.0021C26.7369 18.859 26.4825 18.9643 26.295 19.1518C26.1074 19.3394 26.0021 19.5937 26.0021 19.859V26.002C26.0021 27.105 25.1051 28.002 24.0021 28.002H22.0021V27.002H18.0021V30.002H24.0021C26.2081 30.002 28.0021 28.208 28.0021 26.002C29.1051 26.002 30.0021 25.169 30.0021 24.145V20.002C30.0021 14.488 25.5161 10.002 20.0021 10.002Z" fill="white"/>
</svg>
