<svg width="40" height="40" viewBox="0 0 40 40" fill="none" xmlns="http://www.w3.org/2000/svg">
<circle cx="20" cy="20" r="18.3352" fill="#F2F6F9"/>
<path d="M22.5021 12.0021C24.6238 12.0021 26.6586 12.8449 28.1589 14.3452C29.6592 15.8455 30.5021 17.8803 30.5021 20.0021C30.5021 22.1238 29.6592 24.1586 28.1589 25.6589C26.6586 27.1592 24.6238 28.0021 22.5021 28.0021C20.3803 28.0021 18.3455 27.1592 16.8452 25.6589C15.3449 24.1586 14.5021 22.1238 14.5021 20.0021C14.5021 17.8803 15.3449 15.8455 16.8452 14.3452C18.3455 12.8449 20.3803 12.0021 22.5021 12.0021ZM22.5021 14.0021C20.9108 14.0021 19.3847 14.6342 18.2594 15.7594C17.1342 16.8847 16.5021 18.4108 16.5021 20.0021C16.5021 21.5934 17.1342 23.1195 18.2594 24.2447C19.3847 25.3699 20.9108 26.0021 22.5021 26.0021C24.0934 26.0021 25.6195 25.3699 26.7447 24.2447C27.8699 23.1195 28.5021 21.5934 28.5021 20.0021C28.5021 18.4108 27.8699 16.8847 26.7447 15.7594C25.6195 14.6342 24.0934 14.0021 22.5021 14.0021ZM21.5021 16.0021H23.0021V19.7821L25.3321 22.1121L24.2721 23.1721L21.5021 20.4021V16.0021ZM9.50208 26.0021C9.23686 26.0021 8.9825 25.8967 8.79497 25.7092C8.60743 25.5216 8.50208 25.2673 8.50208 25.0021C8.50208 24.7369 8.60743 24.4825 8.79497 24.295C8.9825 24.1074 9.23686 24.0021 9.50208 24.0021H13.3321C13.6421 24.7121 14.0421 25.3821 14.5021 26.0021H9.50208ZM10.5021 21.0021C10.2369 21.0021 9.9825 20.8967 9.79497 20.7092C9.60743 20.5216 9.50208 20.2673 9.50208 20.0021C9.50208 19.7369 9.60743 19.4825 9.79497 19.295C9.9825 19.1074 10.2369 19.0021 10.5021 19.0021H12.5521L12.5021 20.0021L12.5521 21.0021H10.5021ZM11.5021 16.0021C11.2369 16.0021 10.9825 15.8967 10.795 15.7092C10.6074 15.5216 10.5021 15.2673 10.5021 15.0021C10.5021 14.7369 10.6074 14.4825 10.795 14.295C10.9825 14.1074 11.2369 14.0021 11.5021 14.0021H14.5021C14.0421 14.6221 13.6421 15.2921 13.3321 16.0021H11.5021Z" fill="#265B9F"/>
</svg>
