<svg width="41" height="41" viewBox="0 0 41 41" fill="none" xmlns="http://www.w3.org/2000/svg">
<g filter="url(#filter0_d_32_228)">
<circle cx="20" cy="18.6667" r="15.75" stroke="white" stroke-width="0.5" shape-rendering="crispEdges"/>
</g>
<path d="M25.7385 9.28505C27.3724 10.2285 28.7317 11.5823 29.6816 13.2125C30.6315 14.8426 31.1393 16.6926 31.1545 18.5793C31.1698 20.466 30.692 22.324 29.7685 23.9693C28.845 25.6146 27.5078 26.9902 25.8893 27.9599C24.2708 28.9296 22.4271 29.4598 20.5407 29.4979C18.6544 29.5361 16.7907 29.081 15.1343 28.1776C13.4779 27.2741 12.0862 25.9538 11.0969 24.3472C10.1075 22.7406 9.55499 20.9035 9.49388 19.0177L9.48846 18.6667L9.49388 18.3157C9.55455 16.4448 10.099 14.6215 11.0741 13.0236C12.0492 11.4257 13.4217 10.1078 15.0578 9.19825C16.6939 8.28872 18.5377 7.81864 20.4096 7.83385C22.2814 7.84906 24.1174 8.34904 25.7385 9.28505ZM20.3218 12.1667C20.0565 12.1667 19.8003 12.2642 19.6021 12.4405C19.4038 12.6168 19.2771 12.8598 19.246 13.1233L19.2385 13.25V18.6667L19.2482 18.8086C19.2729 18.9966 19.3465 19.1748 19.4616 19.3254L19.5559 19.4337L22.8059 22.6837L22.9077 22.7725C23.0977 22.92 23.3313 23 23.5718 23C23.8123 23 24.0459 22.92 24.2359 22.7725L24.3377 22.6826L24.4276 22.5808C24.575 22.3908 24.655 22.1572 24.655 21.9167C24.655 21.6762 24.575 21.4426 24.4276 21.2526L24.3377 21.1508L21.4051 18.2171V13.25L21.3975 13.1233C21.3665 12.8598 21.2398 12.6168 21.0415 12.4405C20.8432 12.2642 20.5871 12.1667 20.3218 12.1667Z" fill="white"/>
<defs>
<filter id="filter0_d_32_228" x="-2.08616e-07" y="2.01464e-05" width="40.5333" height="40.5333" filterUnits="userSpaceOnUse" color-interpolation-filters="sRGB">
<feFlood flood-opacity="0" result="BackgroundImageFix"/>
<feColorMatrix in="SourceAlpha" type="matrix" values="0 0 0 0 0 0 0 0 0 0 0 0 0 0 0 0 0 0 127 0" result="hardAlpha"/>
<feOffset dx="0.266667" dy="1.6"/>
<feGaussianBlur stdDeviation="2.13333"/>
<feComposite in2="hardAlpha" operator="out"/>
<feColorMatrix type="matrix" values="0 0 0 0 0 0 0 0 0 0 0 0 0 0 0 0 0 0 0.1 0"/>
<feBlend mode="normal" in2="BackgroundImageFix" result="effect1_dropShadow_32_228"/>
<feBlend mode="normal" in="SourceGraphic" in2="effect1_dropShadow_32_228" result="shape"/>
</filter>
</defs>
</svg>
