<svg width="41" height="41" viewBox="0 0 41 41" fill="none" xmlns="http://www.w3.org/2000/svg">
<g filter="url(#filter0_d_32_220)">
<circle cx="20" cy="18.6667" r="15.75" stroke="white" stroke-width="0.5" shape-rendering="crispEdges"/>
</g>
<path d="M25.0948 17.2234C24.5794 16.7079 23.8804 16.4184 23.1515 16.4184C22.4226 16.4184 21.7236 16.7079 21.2082 17.2234C20.6928 17.7388 20.4032 18.4378 20.4032 19.1667C20.4032 19.8956 20.6928 20.5946 21.2082 21.11C21.4634 21.3652 21.7663 21.5677 22.0998 21.7058C22.4332 21.8439 22.7906 21.915 23.1515 21.915C23.5124 21.915 23.8698 21.8439 24.2032 21.7058C24.5367 21.5677 24.8396 21.3652 25.0948 21.11C25.35 20.8548 25.5525 20.5518 25.6906 20.2184C25.8287 19.885 25.8998 19.5276 25.8998 19.1667C25.8998 18.8058 25.8287 18.4484 25.6906 18.115C25.5525 17.7815 25.35 17.4786 25.0948 17.2234ZM15.8182 13.6667V24.6667H30.4848V13.6667H15.8182ZM28.6515 21C28.1657 21 27.6982 21.1925 27.359 21.5409C27.0107 21.88 26.8182 22.3475 26.8182 22.8334H19.4848C19.4848 22.3475 19.2923 21.88 18.944 21.5409C18.6048 21.1925 18.1373 21 17.6515 21V17.3334C18.1373 17.3334 18.6048 17.1409 18.944 16.7925C19.2923 16.4534 19.4848 15.9859 19.4848 15.5H26.8182C26.8182 15.9859 27.0107 16.4534 27.359 16.7925C27.6982 17.1409 28.1657 17.3334 28.6515 17.3334V21ZM13.9848 15.5H12.1515C11.6473 15.5 11.2348 15.0875 11.2348 14.5834C11.2348 14.0792 11.6473 13.6667 12.1515 13.6667H13.9848V15.5ZM13.9848 20.0834H11.2348C10.7307 20.0834 10.3182 19.6709 10.3182 19.1667C10.3182 18.6625 10.7307 18.25 11.2348 18.25H13.9848V20.0834ZM13.9848 24.6667H10.3182C9.81216 24.6667 9.40149 24.2542 9.40149 23.75C9.40149 23.2459 9.81216 22.8334 10.3182 22.8334H13.9848V24.6667Z" fill="white"/>
<defs>
<filter id="filter0_d_32_220" x="-2.08616e-07" y="2.01464e-05" width="40.5333" height="40.5333" filterUnits="userSpaceOnUse" color-interpolation-filters="sRGB">
<feFlood flood-opacity="0" result="BackgroundImageFix"/>
<feColorMatrix in="SourceAlpha" type="matrix" values="0 0 0 0 0 0 0 0 0 0 0 0 0 0 0 0 0 0 127 0" result="hardAlpha"/>
<feOffset dx="0.266667" dy="1.6"/>
<feGaussianBlur stdDeviation="2.13333"/>
<feComposite in2="hardAlpha" operator="out"/>
<feColorMatrix type="matrix" values="0 0 0 0 0 0 0 0 0 0 0 0 0 0 0 0 0 0 0.1 0"/>
<feBlend mode="normal" in2="BackgroundImageFix" result="effect1_dropShadow_32_220"/>
<feBlend mode="normal" in="SourceGraphic" in2="effect1_dropShadow_32_220" result="shape"/>
</filter>
</defs>
</svg>
