<svg width="41" height="41" viewBox="0 0 41 41" fill="none" xmlns="http://www.w3.org/2000/svg">
<g filter="url(#filter0_d_32_172)">
<circle cx="20" cy="18.6667" r="15.75" stroke="white" stroke-width="0.5" shape-rendering="crispEdges"/>
</g>
<path d="M26.4889 20.4496L25.8748 17.1056C25.6089 15.661 25.476 14.9386 24.9508 14.5115C24.4255 14.0843 23.6702 14.0834 22.1604 14.0834H18.1033C16.5935 14.0834 15.8391 14.0834 15.3129 14.5115C14.7877 14.9386 14.6548 15.661 14.3889 17.1056L13.7748 20.4496C13.2248 23.448 12.9488 24.9477 13.7968 25.9313C14.6447 26.9167 16.2122 26.9167 19.3453 26.9167H20.9183C24.0515 26.9167 25.619 26.9167 26.4669 25.9322C27.3148 24.9477 27.0398 23.448 26.4889 20.4505" stroke="white" stroke-width="1.5" stroke-linecap="round" stroke-linejoin="round"/>
<path d="M20.1318 17.2917V23.25M17.8402 21.4167L20.1318 23.7084L22.4235 21.4167M28.3818 17.75C28.5235 17.6794 28.6519 17.5848 28.7613 17.4704C29.2985 16.9149 29.2985 16.0175 29.2985 14.2227C29.2985 12.4279 29.2985 11.5314 28.7613 10.974C28.2242 10.4167 27.3607 10.4167 25.6318 10.4167H14.6318C12.903 10.4167 12.0395 10.4167 11.5023 10.974C10.9652 11.5314 10.9652 12.4288 10.9652 14.2227C10.9652 16.0166 10.9652 16.914 11.5023 17.4704C11.6123 17.5853 11.7388 17.6785 11.8818 17.75" stroke="#BCBCC9" stroke-width="1.5" stroke-linecap="round" stroke-linejoin="round"/>
<defs>
<filter id="filter0_d_32_172" x="-2.08616e-07" y="2.01464e-05" width="40.5333" height="40.5333" filterUnits="userSpaceOnUse" color-interpolation-filters="sRGB">
<feFlood flood-opacity="0" result="BackgroundImageFix"/>
<feColorMatrix in="SourceAlpha" type="matrix" values="0 0 0 0 0 0 0 0 0 0 0 0 0 0 0 0 0 0 127 0" result="hardAlpha"/>
<feOffset dx="0.266667" dy="1.6"/>
<feGaussianBlur stdDeviation="2.13333"/>
<feComposite in2="hardAlpha" operator="out"/>
<feColorMatrix type="matrix" values="0 0 0 0 0 0 0 0 0 0 0 0 0 0 0 0 0 0 0.1 0"/>
<feBlend mode="normal" in2="BackgroundImageFix" result="effect1_dropShadow_32_172"/>
<feBlend mode="normal" in="SourceGraphic" in2="effect1_dropShadow_32_172" result="shape"/>
</filter>
</defs>
</svg>
