<svg width="41" height="41" viewBox="0 0 41 41" fill="none" xmlns="http://www.w3.org/2000/svg">
<g filter="url(#filter0_d_32_159)">
<circle cx="20" cy="18.6667" r="15.75" stroke="white" stroke-width="0.5" shape-rendering="crispEdges"/>
</g>
<path fill-rule="evenodd" clip-rule="evenodd" d="M21.3603 10.2712H18.686C18.268 10.2635 17.8605 10.4026 17.5344 10.6643C17.2084 10.926 16.9844 11.2937 16.9014 11.7035V11.7087L15.959 16.5301C15.9408 16.6232 15.9434 16.7193 15.9667 16.8113C15.99 16.9033 16.0334 16.989 16.0937 17.0623C16.1541 17.1355 16.2299 17.1945 16.3158 17.235C16.4016 17.2755 16.4954 17.2964 16.5903 17.2964H23.4779C23.5729 17.2963 23.6668 17.2752 23.7527 17.2345C23.8386 17.1938 23.9145 17.1345 23.9747 17.061C24.035 16.9874 24.0782 16.9014 24.1012 16.8092C24.1242 16.717 24.1265 16.6208 24.1079 16.5275L23.1436 11.7061V11.7035C23.0607 11.294 22.8369 10.9264 22.5111 10.6647C22.1853 10.4031 21.7781 10.2638 21.3603 10.2712ZM16.481 19.0784H13.8067C13.3886 19.0711 12.9811 19.2107 12.6552 19.4729C12.3294 19.735 12.1058 20.1032 12.0234 20.5132L12.0221 20.5184L11.081 25.3398C11.0628 25.4329 11.0654 25.5288 11.0886 25.6207C11.1118 25.7126 11.1551 25.7983 11.2153 25.8715C11.2755 25.9447 11.3512 26.0037 11.4369 26.0443C11.5226 26.0849 11.6162 26.106 11.711 26.1061H18.5999C18.6949 26.106 18.7888 26.0849 18.8747 26.0442C18.9606 26.0035 19.0365 25.9442 19.0967 25.8707C19.157 25.7971 19.2002 25.7112 19.2232 25.6189C19.2462 25.5267 19.2485 25.4305 19.2299 25.3372L18.2656 20.5158V20.5132C18.1826 20.1035 17.9586 19.7357 17.6326 19.474C17.3065 19.2123 16.899 19.0732 16.481 19.081M23.5653 19.081H26.2396C26.6576 19.0736 27.0649 19.213 27.3907 19.4749C27.7165 19.7369 27.9402 20.1047 28.0229 20.5145V20.5171L28.9871 25.3385C29.0058 25.4318 29.0035 25.528 28.9805 25.6202C28.9575 25.7124 28.9143 25.7984 28.854 25.872C28.7938 25.9455 28.7179 26.0048 28.632 26.0455C28.5461 26.0862 28.4522 26.1073 28.3571 26.1074H21.4696C21.3748 26.1072 21.2812 26.0861 21.1955 26.0456C21.1098 26.005 21.0341 25.946 20.9739 25.8728C20.9137 25.7995 20.8704 25.7139 20.8472 25.622C20.824 25.5301 20.8214 25.4341 20.8396 25.3411L21.7794 20.5197L21.7807 20.5145C21.8636 20.105 22.0874 19.7374 22.4132 19.4757C22.739 19.2141 23.1462 19.0748 23.564 19.0822" fill="white"/>
<g clip-path="url(#clip0_32_159)">
<circle cx="20" cy="18.0952" r="5.14286" fill="#D9D9D9"/>
<path d="M20 12.381C18.8698 12.381 17.765 12.7161 16.8253 13.344C15.8856 13.9719 15.1532 14.8644 14.7207 15.9085C14.2882 16.9527 14.175 18.1016 14.3955 19.2101C14.616 20.3185 15.1602 21.3367 15.9594 22.1359C16.7585 22.935 17.7767 23.4793 18.8852 23.6998C19.9937 23.9202 21.1426 23.8071 22.1868 23.3746C23.2309 22.9421 24.1234 22.2097 24.7512 21.27C25.3791 20.3302 25.7143 19.2254 25.7143 18.0953C25.7143 16.5797 25.1122 15.1263 24.0406 14.0547C22.969 12.983 21.5155 12.381 20 12.381ZM22.7321 20.0917C22.375 21.1631 21.4429 21.4631 20.625 21.5203V22.2346C20.625 22.353 20.578 22.4665 20.4942 22.5502C20.4105 22.6339 20.297 22.681 20.1786 22.681C20.0602 22.681 19.9466 22.6339 19.8629 22.5502C19.7792 22.4665 19.7321 22.353 19.7321 22.2346V21.5203C18.912 21.4434 18.1341 21.121 17.5 20.5953C17.4571 20.5552 17.4225 20.507 17.3982 20.4535C17.3739 20.4001 17.3603 20.3423 17.3584 20.2836C17.3564 20.2249 17.366 20.1664 17.3866 20.1114C17.4072 20.0564 17.4385 20.006 17.4786 19.9631C17.5187 19.9202 17.5668 19.8856 17.6203 19.8613C17.6738 19.837 17.7315 19.8235 17.7902 19.8215C17.8489 19.8195 17.9074 19.8291 17.9624 19.8497C18.0174 19.8703 18.0678 19.9016 18.1107 19.9417C18.578 20.3183 19.1405 20.5581 19.7357 20.6346V18.3917C19.2613 18.3189 18.8075 18.1474 18.4036 17.8881C18.0639 17.6751 17.8097 17.3498 17.685 16.9687C17.5604 16.5877 17.5733 16.175 17.7214 15.8024C17.9321 15.2631 18.5857 14.6488 19.7357 14.5488V13.8988C19.7357 13.7804 19.7827 13.6669 19.8665 13.5832C19.9502 13.4994 20.0637 13.4524 20.1821 13.4524C20.3005 13.4524 20.4141 13.4994 20.4978 13.5832C20.5815 13.6669 20.6286 13.7804 20.6286 13.8988V14.5631C21.267 14.6338 21.873 14.8812 22.3786 15.2774C22.4486 15.3599 22.4864 15.4649 22.4848 15.5731C22.4832 15.6813 22.4423 15.7852 22.3699 15.8656C22.2974 15.9459 22.1982 15.9972 22.0908 16.0099C21.9833 16.0226 21.8749 15.9958 21.7857 15.9346C21.4447 15.6852 21.0471 15.5244 20.6286 15.4667V17.656C20.8429 17.7024 21.0714 17.7524 21.3107 17.8274C21.5875 17.8964 21.8472 18.0214 22.0739 18.1946C22.3005 18.3678 22.4893 18.5856 22.6286 18.8346C22.8275 19.2236 22.8647 19.6754 22.7321 20.0917Z" fill="#132F47"/>
<path d="M21.0429 18.681C20.9 18.6381 20.7607 18.6024 20.625 18.5739V20.631C21.3393 20.5596 21.7214 20.3096 21.8857 19.8096C21.9405 19.6215 21.9213 19.4197 21.8321 19.2453C21.7448 19.1034 21.63 18.9803 21.4945 18.8834C21.3589 18.7865 21.2054 18.7177 21.0429 18.681Z" fill="#132F47"/>
<path d="M18.55 16.1239C18.4755 16.309 18.4706 16.5149 18.5363 16.7034C18.6019 16.8918 18.7337 17.0501 18.9071 17.1489C19.1595 17.3109 19.4409 17.4225 19.7357 17.4774V15.4346C18.9857 15.5239 18.6393 15.8953 18.55 16.1239Z" fill="#132F47"/>
</g>
<defs>
<filter id="filter0_d_32_159" x="-2.08616e-07" y="2.01464e-05" width="40.5333" height="40.5333" filterUnits="userSpaceOnUse" color-interpolation-filters="sRGB">
<feFlood flood-opacity="0" result="BackgroundImageFix"/>
<feColorMatrix in="SourceAlpha" type="matrix" values="0 0 0 0 0 0 0 0 0 0 0 0 0 0 0 0 0 0 127 0" result="hardAlpha"/>
<feOffset dx="0.266667" dy="1.6"/>
<feGaussianBlur stdDeviation="2.13333"/>
<feComposite in2="hardAlpha" operator="out"/>
<feColorMatrix type="matrix" values="0 0 0 0 0 0 0 0 0 0 0 0 0 0 0 0 0 0 0.1 0"/>
<feBlend mode="normal" in2="BackgroundImageFix" result="effect1_dropShadow_32_159"/>
<feBlend mode="normal" in="SourceGraphic" in2="effect1_dropShadow_32_159" result="shape"/>
</filter>
<clipPath id="clip0_32_159">
<rect width="12.8571" height="12.8571" fill="white" transform="translate(13.5714 11.6667)"/>
</clipPath>
</defs>
</svg>
