<svg width="41" height="41" viewBox="0 0 41 41" fill="none" xmlns="http://www.w3.org/2000/svg">
<g filter="url(#filter0_d_32_198)">
<circle cx="20" cy="18.6667" r="15.75" stroke="white" stroke-width="0.5" shape-rendering="crispEdges"/>
</g>
<path d="M19.7293 7.66669C25.8004 7.66669 30.7217 12.5886 30.7217 18.6604C30.7217 21.5762 29.5636 24.3725 27.5021 26.4342C25.4407 28.4959 22.6447 29.6542 19.7293 29.6542C16.814 29.6542 14.018 28.4959 11.9565 26.4342C9.89506 24.3725 8.73694 21.5762 8.73694 18.6604L8.74134 18.3526C8.90402 12.4237 13.7605 7.66669 19.7293 7.66669ZM23.0271 20.9911C22.7355 20.9911 22.4559 21.1069 22.2498 21.3131C22.0436 21.5193 21.9278 21.7989 21.9278 22.0905V22.107C21.9278 22.3986 22.0436 22.6782 22.2498 22.8844C22.4559 23.0905 22.7355 23.2064 23.0271 23.2064C23.3186 23.2064 23.5982 23.0905 23.8043 22.8844C24.0105 22.6782 24.1263 22.3986 24.1263 22.107V22.0905C24.1263 21.7989 24.0105 21.5193 23.8043 21.3131C23.5982 21.1069 23.3186 20.9911 23.0271 20.9911ZM23.8042 14.6675C23.5981 14.4614 23.3185 14.3456 23.0271 14.3456C22.7356 14.3456 22.456 14.4614 22.2499 14.6675L15.6545 21.2638C15.4542 21.4711 15.3434 21.7488 15.3459 22.0371C15.3484 22.3253 15.464 22.6011 15.6678 22.8049C15.8717 23.0087 16.1474 23.1243 16.4356 23.1268C16.7238 23.1293 17.0015 23.0185 17.2088 22.8183L23.8042 16.222C24.0103 16.0159 24.1261 15.7363 24.1261 15.4448C24.1261 15.1533 24.0103 14.8737 23.8042 14.6675ZM16.4316 14.3784C16.1401 14.3784 15.8605 14.4942 15.6543 14.7004C15.4482 14.9065 15.3324 15.1862 15.3324 15.4777V15.4942C15.3324 15.7858 15.4482 16.0654 15.6543 16.2716C15.8605 16.4778 16.1401 16.5936 16.4316 16.5936C16.7232 16.5936 17.0027 16.4778 17.2089 16.2716C17.415 16.0654 17.5309 15.7858 17.5309 15.4942V15.4777C17.5309 15.1862 17.415 14.9065 17.2089 14.7004C17.0027 14.4942 16.7232 14.3784 16.4316 14.3784Z" fill="white"/>
<defs>
<filter id="filter0_d_32_198" x="-2.08616e-07" y="2.01464e-05" width="40.5333" height="40.5333" filterUnits="userSpaceOnUse" color-interpolation-filters="sRGB">
<feFlood flood-opacity="0" result="BackgroundImageFix"/>
<feColorMatrix in="SourceAlpha" type="matrix" values="0 0 0 0 0 0 0 0 0 0 0 0 0 0 0 0 0 0 127 0" result="hardAlpha"/>
<feOffset dx="0.266667" dy="1.6"/>
<feGaussianBlur stdDeviation="2.13333"/>
<feComposite in2="hardAlpha" operator="out"/>
<feColorMatrix type="matrix" values="0 0 0 0 0 0 0 0 0 0 0 0 0 0 0 0 0 0 0.1 0"/>
<feBlend mode="normal" in2="BackgroundImageFix" result="effect1_dropShadow_32_198"/>
<feBlend mode="normal" in="SourceGraphic" in2="effect1_dropShadow_32_198" result="shape"/>
</filter>
</defs>
</svg>
