<svg width="40" height="40" viewBox="0 0 40 40" fill="none" xmlns="http://www.w3.org/2000/svg">
<circle cx="20" cy="20" r="18.3352" fill="#ED8946"/>
<g clip-path="url(#clip0_32_260)">
<path d="M31.4986 10.4196C31.4348 10.2607 31.3122 10.1325 31.1562 10.0616C31.0003 9.99081 30.823 9.98284 30.6614 10.0394C30.4997 10.0959 30.366 10.2126 30.2882 10.3652C30.2104 10.5177 30.1944 10.6944 30.2435 10.8585C31.2654 13.7955 29.237 15.9889 27.6904 17.1637L27.0656 16.2683C26.8555 15.968 26.3858 15.7183 26.0206 15.7139L22.5138 15.7293C22.0854 15.7421 21.6684 15.8706 21.3071 16.1011L10.9737 23.3468C10.7333 23.5159 10.5698 23.7734 10.5189 24.0629C10.468 24.3523 10.5338 24.6502 10.702 24.8912L15.3979 31.61C15.7499 32.1105 16.312 32.05 16.8136 31.7002L27.147 24.4534C27.444 24.2433 27.7872 23.7901 27.9082 23.4436L29.006 19.9841C29.127 19.6387 29.0533 19.1118 28.8432 18.8115L28.4626 18.2659C30.5394 16.6742 32.6954 13.8615 31.4986 10.4196ZM26.6905 20.7134C26.3059 20.9819 25.8304 21.0869 25.3684 21.0052C24.9065 20.9236 24.4958 20.6619 24.2265 20.2778C23.9569 19.8924 23.8513 19.4158 23.9327 18.9526C24.0142 18.4894 24.2761 18.0775 24.661 17.8072C24.9629 17.5963 25.3231 17.4847 25.6914 17.4881C26.0597 17.4914 26.4178 17.6095 26.7158 17.8259C26.4166 18.0063 26.2109 18.1119 26.1724 18.1284C26.036 18.1934 25.9258 18.3028 25.8598 18.4387C25.7937 18.5745 25.7758 18.7288 25.8089 18.8762C25.842 19.0236 25.9242 19.1554 26.042 19.2499C26.1598 19.3445 26.3062 19.3963 26.4573 19.3967C26.5526 19.3967 26.6469 19.3751 26.74 19.3318C26.9541 19.2313 27.1811 19.1103 27.4209 18.9688C27.4752 19.2988 27.4354 19.6375 27.3063 19.946C27.1771 20.2545 26.9637 20.5205 26.6905 20.7134Z" fill="white"/>
</g>
<defs>
<clipPath id="clip0_32_260">
<rect width="22" height="22" fill="white" transform="translate(10.5021 10.0021)"/>
</clipPath>
</defs>
</svg>
