<svg width="176" height="116" viewBox="0 0 176 116" fill="none" xmlns="http://www.w3.org/2000/svg">
<path d="M156.302 0H19.6984C8.81927 0 0 8.81543 0 19.6898V95.4297C0 106.304 8.81927 115.119 19.6984 115.119H156.302C167.181 115.119 176 106.304 176 95.4297V19.6898C176 8.81543 167.181 0 156.302 0Z" fill="#132F47"/>
<path d="M123.909 67.0937C122.982 67.0937 122.163 66.8914 121.455 66.4906C120.744 66.0879 120.188 65.5335 119.785 64.8273C119.382 64.1212 119.182 63.3157 119.182 62.4035C119.182 61.4913 119.384 60.6616 119.785 59.9554C120.188 59.2493 120.746 58.6948 121.455 58.2921C122.163 57.8894 122.982 57.689 123.909 57.689C124.395 57.689 124.867 57.7677 125.324 57.9287C125.783 58.0898 126.203 58.3071 126.585 58.5862C126.968 58.8653 127.273 59.18 127.505 59.534L126.636 60.1315C126.462 59.8561 126.229 59.6052 125.935 59.386C125.641 59.165 125.317 58.9945 124.968 58.8747C124.618 58.7529 124.266 58.693 123.911 58.693C123.211 58.693 122.586 58.8503 122.041 59.1687C121.496 59.4834 121.069 59.9198 120.756 60.4743C120.443 61.0287 120.289 61.6749 120.289 62.411C120.289 63.1472 120.443 63.7559 120.75 64.3141C121.056 64.8723 121.487 65.3106 122.036 65.6327C122.585 65.953 123.211 66.1141 123.911 66.1141C124.5 66.1141 125.024 65.9905 125.478 65.7451C125.933 65.4997 126.289 65.157 126.552 64.7187C126.812 64.2822 126.941 63.7765 126.941 63.2071L127.993 63.1284C127.993 63.9245 127.82 64.6194 127.475 65.2132C127.131 65.8069 126.647 66.2696 126.033 66.603C125.418 66.9364 124.711 67.1031 123.915 67.1031L123.909 67.0975V67.0937ZM124.7 63.2502V62.3024H127.985V63.1603L127.468 63.252H124.7V63.2502Z" fill="white"/>
<path d="M128.78 66.9364V60.4443H129.818V66.9364H128.78ZM129.351 63.4187C129.351 62.7182 129.484 62.1488 129.754 61.7105C130.024 61.2741 130.367 60.95 130.787 60.7384C131.208 60.5267 131.651 60.4199 132.117 60.4199V61.3958C131.735 61.3958 131.371 61.4595 131.021 61.5831C130.669 61.7105 130.38 61.9128 130.157 62.2012C129.932 62.4859 129.818 62.8774 129.818 63.37L129.351 63.4206V63.4169V63.4187Z" fill="white"/>
<path d="M135.458 67.0937C134.825 67.0937 134.265 66.9476 133.776 66.6573C133.288 66.367 132.904 65.9661 132.627 65.4567C132.348 64.9453 132.211 64.3572 132.211 63.6903C132.211 63.0235 132.348 62.4354 132.621 61.924C132.893 61.4127 133.275 61.0118 133.764 60.7253C134.252 60.4349 134.81 60.2888 135.434 60.2888C136.058 60.2888 136.641 60.4349 137.128 60.7253C137.615 61.0156 137.997 61.4164 138.271 61.924C138.545 62.4354 138.681 63.0235 138.681 63.6903C138.681 64.3572 138.545 64.9453 138.271 65.4567C137.999 65.968 137.619 66.3689 137.134 66.6573C136.648 66.9458 136.092 67.0937 135.458 67.0937ZM135.458 66.131C135.893 66.131 136.268 66.028 136.588 65.8182C136.909 65.6084 137.162 65.3237 137.349 64.9603C137.536 64.5969 137.628 64.1717 137.628 63.6885C137.628 63.2052 137.535 62.78 137.349 62.4166C137.164 62.0533 136.907 61.7686 136.577 61.5588C136.245 61.349 135.867 61.246 135.434 61.246C135.001 61.246 134.634 61.349 134.31 61.5588C133.985 61.7686 133.729 62.0533 133.543 62.4166C133.356 62.78 133.264 63.2033 133.264 63.6885C133.264 64.1736 133.36 64.5857 133.543 64.9547C133.729 65.3218 133.989 65.6121 134.321 65.8182C134.654 66.028 135.033 66.131 135.458 66.131Z" fill="white"/>
<path d="M139.369 63.7671V60.4443H140.407V63.7671H139.369ZM140.409 63.7671C140.409 64.4096 140.482 64.8966 140.63 65.2338C140.778 65.5709 140.981 65.8032 141.249 65.9268C141.513 66.0542 141.809 66.1141 142.139 66.1141C142.703 66.1141 143.141 65.9118 143.456 65.5016C143.771 65.0952 143.93 64.5295 143.93 63.799H144.436C144.436 64.4845 144.335 65.0708 144.136 65.5653C143.936 66.0598 143.649 66.4344 143.272 66.6948C142.898 66.9551 142.433 67.0862 141.888 67.0862C141.384 67.0862 140.941 66.9832 140.563 66.7809C140.182 66.5786 139.886 66.2546 139.68 65.8088C139.47 65.363 139.367 64.7842 139.367 64.0762V63.7634H140.405V63.7671H140.409ZM143.994 66.9364L143.93 65.7432V60.4443H144.968V66.9364H143.992H143.994Z" fill="white"/>
<path d="M146.267 69.5362V60.4443H147.24L147.303 61.6375V69.5325H146.265H146.269V69.5362H146.267ZM149.505 67.0937C148.958 67.0937 148.48 66.9514 148.068 66.6629C147.656 66.3782 147.337 65.9774 147.114 65.4623C146.889 64.9472 146.777 64.3572 146.777 63.6903C146.777 63.0235 146.889 62.4204 147.114 61.9128C147.337 61.4014 147.656 61.0043 148.068 60.7196C148.48 60.4349 148.958 60.2888 149.505 60.2888C150.084 60.2888 150.596 60.4312 151.038 60.7196C151.48 61.0043 151.823 61.4052 152.072 61.9128C152.318 62.4241 152.441 63.016 152.441 63.6903C152.441 64.3647 152.316 64.9472 152.072 65.4623C151.823 65.9774 151.48 66.3763 151.038 66.6629C150.596 66.9476 150.086 67.0937 149.505 67.0937ZM149.267 66.146C149.674 66.146 150.037 66.0429 150.352 65.8331C150.667 65.6234 150.918 65.3368 151.107 64.964C151.295 64.5913 151.386 64.168 151.386 63.6922C151.386 63.2165 151.298 62.7931 151.118 62.4204C150.94 62.0477 150.691 61.7573 150.373 61.5513C150.052 61.3415 149.689 61.2385 149.282 61.2385C148.9 61.2385 148.561 61.3415 148.261 61.5513C147.961 61.7611 147.727 62.0477 147.56 62.4204C147.389 62.7931 147.305 63.2165 147.305 63.6922C147.305 64.168 147.389 64.5913 147.56 64.964C147.73 65.3368 147.959 65.6271 148.255 65.8331C148.549 66.0392 148.889 66.146 149.267 66.146Z" fill="white"/>
<path d="M119.791 55.681V46.5891H120.934L124.078 51.24L127.221 46.5891H128.351V55.681H127.258V48.3554L124.076 53.0962L120.894 48.3816V55.6792H119.791V55.681Z" fill="white"/>
<path d="M131.949 55.8384C131.188 55.8384 130.59 55.6623 130.163 55.3121C129.732 54.9599 129.52 54.4767 129.52 53.8511C129.52 53.1936 129.739 52.6879 130.174 52.3395C130.611 51.9873 131.223 51.8131 132.012 51.8131H133.871V52.6823H132.246C131.639 52.6823 131.21 52.7815 130.952 52.9819C130.695 53.1824 130.569 53.4671 130.569 53.8398C130.569 54.177 130.693 54.4429 130.944 54.6396C131.195 54.8344 131.548 54.93 131.995 54.93C132.368 54.93 132.692 54.8513 132.968 54.6902C133.243 54.5291 133.459 54.2987 133.611 54.0028C133.762 53.7031 133.837 53.3509 133.837 52.9464H134.28C134.28 53.8304 134.079 54.5329 133.682 55.0573C133.285 55.5818 132.704 55.8421 131.943 55.8421V55.8384H131.949ZM133.899 55.681L133.847 54.6171V52.2533C133.847 51.742 133.789 51.3205 133.676 50.9871C133.564 50.6537 133.386 50.399 133.142 50.2266C132.9 50.0543 132.584 49.9663 132.194 49.9663C131.838 49.9663 131.534 50.0393 131.28 50.1817C131.025 50.324 130.813 50.5507 130.648 50.8635L129.713 50.5001C129.876 50.1967 130.076 49.9363 130.311 49.7153C130.543 49.4943 130.817 49.3238 131.128 49.2096C131.441 49.0916 131.795 49.0335 132.192 49.0335C132.797 49.0335 133.298 49.1515 133.691 49.3913C134.085 49.631 134.383 49.9794 134.583 50.442C134.784 50.9047 134.877 51.4779 134.868 52.1634L134.855 55.6829H133.894L133.897 55.6792L133.899 55.681Z" fill="white"/>
<path d="M135.938 55.6811V49.189H136.978V55.6811H135.938ZM136.511 52.1653C136.511 51.4648 136.644 50.8953 136.914 50.457C137.184 50.0206 137.527 49.6966 137.949 49.4849C138.37 49.2733 138.813 49.1665 139.279 49.1665V50.1386C138.897 50.1386 138.533 50.2023 138.183 50.3259C137.833 50.4495 137.542 50.6556 137.319 50.944C137.094 51.2287 136.98 51.6202 136.98 52.1128L136.513 52.1634L136.511 52.1653Z" fill="white"/>
<path d="M139.744 55.681V46.5891H140.782V55.681H139.744ZM140.76 53.5907L140.096 52.8752L143.552 49.1889H144.863L140.756 53.5907H140.76ZM143.84 55.681L141.372 51.9555L142.049 51.2287L145.128 55.6829H143.84V55.681Z" fill="white"/>
<path d="M148.165 55.8384C147.532 55.8384 146.973 55.6923 146.49 55.402C146.005 55.1116 145.626 54.7108 145.352 54.2013C145.079 53.69 144.942 53.1018 144.942 52.435C144.942 51.7682 145.079 51.18 145.352 50.6687C145.624 50.1573 146.001 49.7565 146.482 49.4662C146.964 49.1758 147.517 49.0297 148.141 49.0297C148.765 49.0297 149.271 49.1777 149.713 49.4774C150.155 49.7771 150.498 50.1929 150.74 50.7324C150.984 51.2718 151.103 51.9012 151.103 52.6279H145.738L146.001 52.4069C146.001 52.9257 146.095 53.3734 146.278 53.7462C146.464 54.1189 146.726 54.3999 147.063 54.5965C147.401 54.7913 147.787 54.8869 148.218 54.8869C148.677 54.8869 149.063 54.7782 149.381 54.5628C149.696 54.3474 149.942 54.059 150.116 53.7049L151.014 54.1601C150.85 54.4991 150.631 54.7932 150.356 55.0442C150.084 55.2952 149.762 55.49 149.396 55.6286C149.029 55.7672 148.617 55.8384 148.169 55.8384H148.165ZM146.061 51.9667L145.787 51.7569H150.27L149.998 51.978C149.998 51.5621 149.915 51.2025 149.752 50.8991C149.589 50.5956 149.368 50.3634 149.089 50.1985C148.81 50.0356 148.491 49.9532 148.128 49.9532C147.764 49.9532 147.436 50.0356 147.121 50.1985C146.807 50.3615 146.548 50.5956 146.355 50.8916C146.16 51.1913 146.065 51.5453 146.065 51.9649H146.061V51.9667Z" fill="white"/>
<path d="M151.152 50.1105V49.189H155.271V50.1105H151.152ZM154.272 55.8384C153.639 55.8384 153.152 55.6754 152.805 55.3439C152.46 55.0142 152.288 54.5497 152.288 53.9541V47.1623H153.328V53.8511C153.328 54.1807 153.416 54.4336 153.594 54.6115C153.77 54.7895 154.021 54.8775 154.34 54.8775C154.443 54.8775 154.546 54.8625 154.645 54.8326C154.746 54.8026 154.876 54.7258 155.042 54.6059L155.445 55.4507C155.22 55.5986 155.014 55.6998 154.836 55.756C154.654 55.8141 154.467 55.8403 154.278 55.8403H154.272V55.8365V55.8384Z" fill="white"/>
<path d="M158.427 55.8384C157.951 55.8384 157.537 55.7653 157.179 55.623C156.824 55.4806 156.527 55.2933 156.289 55.0592C156.049 54.8269 155.878 54.5722 155.777 54.2931L156.686 53.9166C156.834 54.2107 157.053 54.4504 157.349 54.6321C157.643 54.8138 157.968 54.9056 158.322 54.9056C158.728 54.9056 159.069 54.8269 159.349 54.6658C159.624 54.5048 159.765 54.2781 159.765 53.984C159.765 53.7143 159.662 53.4989 159.459 53.336C159.257 53.173 158.953 53.0363 158.556 52.9332L157.932 52.7628C157.345 52.6073 156.884 52.3713 156.557 52.0548C156.227 51.7401 156.064 51.3823 156.064 50.9815C156.064 50.3671 156.266 49.8876 156.667 49.5448C157.07 49.2021 157.67 49.0335 158.468 49.0335C158.85 49.0335 159.195 49.0916 159.508 49.2039C159.821 49.3163 160.087 49.4737 160.314 49.676C160.54 49.8783 160.705 50.118 160.807 50.3971L159.898 50.7998C159.785 50.5057 159.598 50.2941 159.341 50.163C159.084 50.0318 158.766 49.9682 158.393 49.9682C157.992 49.9682 157.683 50.0524 157.456 50.2229C157.229 50.3933 157.119 50.6294 157.119 50.9309C157.119 51.1032 157.212 51.2681 157.398 51.4179C157.582 51.5696 157.859 51.6933 158.222 51.7869L158.871 51.9574C159.294 52.0604 159.65 52.214 159.935 52.4181C160.22 52.6204 160.437 52.8546 160.584 53.1112C160.733 53.3715 160.805 53.6469 160.805 53.941C160.805 54.3324 160.702 54.6677 160.492 54.9524C160.284 55.2371 160.001 55.4582 159.647 55.6099C159.291 55.7616 158.882 55.8365 158.425 55.8365H158.43V55.8328L158.427 55.8384Z" fill="white"/>
<path d="M123.909 44.0417C122.982 44.0417 122.163 43.8413 121.455 43.4386C120.744 43.0359 120.188 42.4815 119.785 41.7753C119.382 41.0692 119.182 40.2637 119.182 39.3553C119.182 38.4469 119.384 37.6133 119.785 36.9072C120.188 36.201 120.746 35.6466 121.455 35.2439C122.163 34.8412 122.982 34.6408 123.909 34.6408C124.395 34.6408 124.867 34.7194 125.324 34.8805C125.783 35.0416 126.203 35.2589 126.585 35.5342C126.968 35.8133 127.273 36.128 127.505 36.482L126.636 37.0795C126.462 36.8042 126.229 36.5532 125.935 36.334C125.641 36.113 125.317 35.9425 124.968 35.8227C124.618 35.7009 124.266 35.641 123.911 35.641C123.211 35.641 122.586 35.7983 122.041 36.113C121.496 36.4277 121.069 36.8641 120.756 37.4185C120.443 37.973 120.289 38.6173 120.289 39.3553C120.289 40.0933 120.443 40.7002 120.75 41.2583C121.056 41.8165 121.487 42.2548 122.036 42.577C122.585 42.8973 123.211 43.0584 123.911 43.0584C124.5 43.0584 125.024 42.9347 125.478 42.6894C125.933 42.444 126.289 42.1012 126.552 41.6629C126.812 41.2265 126.941 40.7208 126.941 40.1514L127.993 40.0727C127.993 40.8687 127.82 41.5637 127.475 42.1574C127.131 42.7512 126.647 43.2138 126.033 43.5472C125.418 43.8807 124.711 44.0474 123.915 44.0474H123.909V44.0436V44.0417ZM124.7 40.1982V39.2504H127.985V40.1083L127.468 40.2001H124.7V40.1982Z" fill="white"/>
<path d="M128.78 43.8844V34.7962H129.818V43.8881H128.78V43.8844Z" fill="white"/>
<path d="M133.925 44.0417C133.292 44.0417 132.732 43.8956 132.243 43.6053C131.752 43.315 131.371 42.9141 131.094 42.4028C130.815 41.8914 130.68 41.3033 130.68 40.6365C130.68 39.9697 130.815 39.3815 131.088 38.8702C131.36 38.3588 131.742 37.958 132.231 37.6714C132.719 37.3829 133.277 37.235 133.901 37.235C134.525 37.235 135.108 37.3811 135.595 37.6714C136.082 37.9617 136.465 38.3626 136.738 38.8702C137.012 39.3815 137.149 39.9697 137.149 40.6365C137.149 41.3033 137.012 41.8914 136.738 42.4028C136.466 42.9141 136.086 43.315 135.601 43.6053C135.115 43.8956 134.559 44.0417 133.925 44.0417ZM133.925 43.0827C134.358 43.0827 134.735 42.9797 135.055 42.7699C135.376 42.5601 135.629 42.2754 135.816 41.912C136.004 41.5487 136.095 41.1253 136.095 40.6402C136.095 40.1551 136 39.7318 135.816 39.3684C135.631 39.005 135.374 38.7203 135.044 38.5105C134.712 38.3007 134.334 38.1977 133.901 38.1977C133.468 38.1977 133.101 38.3007 132.777 38.5105C132.453 38.7203 132.196 39.005 132.01 39.3684C131.823 39.7318 131.731 40.157 131.731 40.6402C131.731 41.1235 131.827 41.5374 132.01 41.9064C132.196 42.2735 132.456 42.5601 132.79 42.7699C133.123 42.9797 133.502 43.0827 133.927 43.0827H133.925Z" fill="white"/>
<path d="M138.005 43.8844V34.7962H139.043V42.6781L138.991 43.8863H138.003V43.8825L138.005 43.8844ZM141.239 44.0417C140.694 44.0417 140.214 43.8994 139.804 43.6147C139.392 43.33 139.073 42.9291 138.848 42.414C138.623 41.8989 138.513 41.3089 138.513 40.6421C138.513 39.9753 138.623 39.3721 138.848 38.8645C139.073 38.3532 139.39 37.9561 139.804 37.6714C140.216 37.3867 140.694 37.2443 141.239 37.2443C141.822 37.2443 142.332 37.3867 142.772 37.6714C143.214 37.9561 143.557 38.3569 143.805 38.8645C144.05 39.3759 144.174 39.9678 144.174 40.6421C144.174 41.3164 144.05 41.8989 143.805 42.414C143.559 42.9291 143.214 43.3281 142.772 43.6147C142.33 43.8994 141.82 44.0417 141.239 44.0417ZM141.005 43.094C141.412 43.094 141.775 42.9909 142.09 42.7812C142.405 42.5714 142.656 42.2848 142.845 41.912C143.029 41.5393 143.124 41.116 143.124 40.6402C143.124 40.1645 143.036 39.7411 142.856 39.3684C142.678 38.9957 142.429 38.7053 142.111 38.4993C141.79 38.2895 141.425 38.1865 141.02 38.1865C140.638 38.1865 140.299 38.2895 140.001 38.4993C139.701 38.7091 139.467 38.9957 139.298 39.3684C139.127 39.7411 139.043 40.1645 139.043 40.6402C139.043 41.116 139.127 41.5393 139.298 41.912C139.468 42.2848 139.697 42.5751 139.993 42.7812C140.287 42.9909 140.623 43.094 141.005 43.094Z" fill="white"/>
<path d="M147.086 44.0417C146.325 44.0417 145.727 43.8657 145.3 43.5154C144.873 43.1633 144.657 42.68 144.657 42.0544C144.657 41.3969 144.877 40.8912 145.311 40.5428C145.748 40.1944 146.361 40.0165 147.151 40.0165H149.008V40.8856H147.384C146.779 40.8856 146.348 40.9849 146.091 41.1853C145.836 41.3857 145.709 41.6704 145.709 42.0432C145.709 42.3803 145.834 42.6463 146.085 42.843C146.336 43.0396 146.689 43.1333 147.136 43.1333C147.509 43.1333 147.834 43.0546 148.111 42.8935C148.386 42.7324 148.602 42.5021 148.754 42.2061C148.905 41.9064 148.98 41.5543 148.98 41.1497H149.423C149.423 42.0338 149.222 42.7381 148.825 43.2607C148.428 43.7832 147.845 44.0455 147.086 44.0455V44.0417ZM149.035 43.8844L148.982 42.8186V40.4548C148.982 39.9434 148.924 39.522 148.812 39.1886C148.699 38.8552 148.521 38.6004 148.28 38.4281C148.036 38.2558 147.721 38.1678 147.329 38.1678C146.975 38.1678 146.67 38.2408 146.415 38.3832C146.16 38.5255 145.948 38.7522 145.785 39.065L144.848 38.7016C145.011 38.3981 145.212 38.1378 145.446 37.9168C145.68 37.6957 145.952 37.5253 146.265 37.411C146.578 37.293 146.932 37.235 147.329 37.235C147.935 37.235 148.435 37.353 148.83 37.5927C149.224 37.8325 149.522 38.1809 149.721 38.6435C149.921 39.1062 150.015 39.6793 150.005 40.3649L149.994 43.8844H149.033H149.037H149.035Z" fill="white"/>
<path d="M151.073 43.8844V34.7962H152.112V43.8881H151.073V43.8844Z" fill="white"/>
<path d="M126.415 72.8722C126.415 73.406 126.289 73.8949 126.04 74.3369C125.798 74.7715 125.427 75.1217 124.925 75.3896C124.432 75.6481 123.827 75.7773 123.109 75.7773H121.893V78.7593H119.436V69.9277H123.109C123.82 69.9277 124.421 70.0532 124.914 70.3042C125.416 70.5552 125.791 70.9017 126.042 71.3437C126.293 71.7858 126.417 72.2953 126.417 72.8722H126.415ZM122.869 73.8256C123.563 73.8256 123.909 73.509 123.909 72.874C123.909 72.2391 123.563 71.9094 122.869 71.9094H121.891V73.8256H122.869ZM129.857 72.9733C130.133 72.5725 130.466 72.2559 130.86 72.0218C131.251 71.7877 131.675 71.6715 132.125 71.6715V74.2901H131.435C130.901 74.2901 130.504 74.395 130.243 74.6029C129.985 74.8108 129.855 75.1742 129.855 75.693V78.7611H127.401V71.7333H129.855V72.9733H129.857ZM134.248 71.0815C133.813 71.0815 133.463 70.9654 133.195 70.7312C132.936 70.4896 132.807 70.188 132.807 69.8284C132.807 69.4688 132.936 69.156 133.195 68.9143C133.463 68.6727 133.813 68.551 134.248 68.551C134.683 68.551 135.016 68.6727 135.275 68.9143C135.543 69.156 135.676 69.4613 135.676 69.8284C135.676 70.1955 135.543 70.4877 135.275 70.7312C135.016 70.9654 134.673 71.0815 134.248 71.0815ZM135.462 71.7333V78.7611H133.005V71.7333H135.462ZM146.046 71.6696C146.932 71.6696 147.625 71.9375 148.126 72.4713C148.636 73.0051 148.89 73.7357 148.89 74.6628V78.7593H146.434V74.9887C146.434 74.6123 146.329 74.3201 146.121 74.1121C145.913 73.9042 145.628 73.7993 145.268 73.7993C144.908 73.7993 144.625 73.9042 144.416 74.1121C144.206 74.3201 144.101 74.6123 144.101 74.9887V78.7593H141.646V74.9887C141.646 74.6123 141.541 74.3201 141.333 74.1121C141.132 73.9042 140.853 73.7993 140.493 73.7993C140.134 73.7993 139.838 73.9042 139.63 74.1121C139.422 74.3201 139.317 74.6123 139.317 74.9887V78.7593H136.862V71.7315H139.317V72.6586C139.534 72.3571 139.813 72.1192 140.156 71.945C140.507 71.7614 140.908 71.6696 141.359 71.6696C141.876 71.6696 142.335 71.782 142.737 72.0087C143.147 72.2334 143.467 72.5519 143.702 72.9602C143.953 72.5762 144.282 72.2672 144.691 72.033C145.101 71.7914 145.551 71.6696 146.044 71.6696H146.046ZM156.954 75.1648C156.954 75.3577 156.943 75.5488 156.916 75.7417H152.267C152.292 76.1257 152.396 76.4142 152.58 76.6052C152.773 76.7888 153.015 76.8806 153.307 76.8806C153.716 76.8806 154.008 76.697 154.184 76.3299H156.802C156.693 76.815 156.482 77.2477 156.163 77.6317C155.854 78.0081 155.462 78.3041 154.986 78.5214C154.51 78.7386 153.984 78.8473 153.408 78.8473C152.715 78.8473 152.097 78.7012 151.553 78.409C151.019 78.1168 150.596 77.6991 150.286 77.1559C149.987 76.6127 149.835 75.974 149.835 75.2397C149.835 74.5055 149.985 73.8705 150.286 73.3367C150.588 72.7935 151.006 72.3758 151.54 72.0836C152.082 71.7914 152.706 71.6453 153.408 71.6453C154.111 71.6453 154.716 71.7876 155.25 72.0705C155.784 72.3552 156.202 72.7635 156.504 73.2974C156.804 73.8237 156.956 74.4455 156.956 75.1629L156.954 75.1648ZM154.448 74.5504C154.448 74.2508 154.347 74.0166 154.147 73.848C153.946 73.672 153.695 73.5858 153.395 73.5858C153.095 73.5858 152.848 73.6701 152.655 73.8368C152.462 73.996 152.338 74.2339 152.28 74.5504H154.448Z" fill="#E77831"/>
<path d="M101.46 51.4704C96.6312 40.1027 82.3634 35.759 72.7596 44.2328C65.0879 50.9871 68.1461 58.3914 65.1423 66.6498C56.9346 89.0669 24.2632 88.9601 16.2167 67.0263C5.48492 38.2258 43.4688 17.9554 61.387 41.9795C59.4006 44.2834 57.7404 46.8064 57.5792 51.2569C57.3637 51.3636 56.6123 50.0749 56.6123 50.0749C52.589 41.6554 42.5543 37.7407 33.9175 41.2808C26.0847 44.4969 20.343 52.8621 23.8828 63.5911C29.2497 79.9993 53.927 78.2873 57.7347 61.6581H42.1777V53.0775H58.8085C63.4764 25.3016 103.447 23.9586 109.775 51.4723H101.46V51.4704Z" fill="white"/>
<path d="M110.313 53.0756C110.903 56.936 110.742 60.2064 109.722 64.0144C109.507 64.8741 107.843 70.662 103.388 75.3821C95.2876 83.9084 81.7675 84.8206 74.7947 81.7618C70.9326 80.0442 67.3928 77.096 67.3928 77.096C65.7288 75.7005 64.5501 74.4156 63.6919 73.5034C64.3908 72.1623 65.0879 70.7163 65.7869 69.2141C66.5927 67.4421 67.3441 65.6758 67.985 64.0106C68.5228 65.1926 71.4179 71.4093 78.5556 73.8799C84.9381 76.1295 91.9689 74.3632 96.5825 70.233C99.9611 67.178 101.305 63.5311 101.841 61.7592H87.2467V53.1786H110.425L110.318 53.0719L110.314 53.0756H110.313Z" fill="#E77831"/>
</svg>
