<svg width="147" height="53" viewBox="0 0 147 53" fill="none" xmlns="http://www.w3.org/2000/svg">
<path d="M109.571 35.752C108.643 35.752 107.824 35.5497 107.116 35.1489C106.406 34.7462 105.849 34.1917 105.446 33.4856C105.043 32.7794 104.843 31.974 104.843 31.0618C104.843 30.1496 105.045 29.3198 105.446 28.6137C105.849 27.9075 106.407 27.3531 107.116 26.9504C107.824 26.5477 108.643 26.3473 109.571 26.3473C110.056 26.3473 110.528 26.4259 110.985 26.587C111.445 26.7481 111.864 26.9654 112.247 27.2445C112.629 27.5236 112.934 27.8382 113.167 28.1923L112.297 28.7898C112.123 28.5144 111.89 28.2634 111.596 28.0443C111.302 27.8233 110.978 27.6528 110.629 27.5329C110.279 27.4112 109.927 27.3512 109.572 27.3512C108.872 27.3512 108.248 27.5086 107.702 27.827C107.157 28.1417 106.73 28.5781 106.417 29.1325C106.104 29.687 105.95 30.3332 105.95 31.0693C105.95 31.8054 106.104 32.4142 106.411 32.9724C106.717 33.5305 107.148 33.9688 107.697 34.291C108.246 34.6113 108.872 34.7724 109.572 34.7724C110.161 34.7724 110.686 34.6488 111.139 34.4034C111.594 34.158 111.95 33.8152 112.213 33.3769C112.473 32.9405 112.603 32.4348 112.603 31.8654L113.654 31.7867C113.654 32.5828 113.481 33.2777 113.137 33.8714C112.792 34.4652 112.308 34.9279 111.694 35.2613C111.079 35.5947 110.373 35.7614 109.576 35.7614L109.571 35.7558V35.752ZM110.361 31.9085V30.9607H113.646V31.8185L113.129 31.9103H110.361V31.9085Z" fill="white"/>
<path d="M114.441 35.5947V29.1026H115.479V35.5947H114.441ZM115.012 32.077C115.012 31.3765 115.145 30.8071 115.415 30.3688C115.685 29.9323 116.028 29.6083 116.448 29.3966C116.869 29.185 117.311 29.0782 117.778 29.0782V30.0541C117.396 30.0541 117.032 30.1178 116.682 30.2414C116.33 30.3688 116.041 30.5711 115.818 30.8595C115.593 31.1442 115.479 31.5357 115.479 32.0283L115.012 32.0789V32.0751V32.077Z" fill="white"/>
<path d="M121.119 35.752C120.486 35.752 119.926 35.6059 119.437 35.3156C118.949 35.0253 118.565 34.6244 118.288 34.1149C118.009 33.6036 117.872 33.0154 117.872 32.3486C117.872 31.6818 118.009 31.0937 118.282 30.5823C118.554 30.071 118.936 29.6701 119.425 29.3835C119.912 29.0932 120.471 28.9471 121.095 28.9471C121.719 28.9471 122.302 29.0932 122.789 29.3835C123.276 29.6739 123.658 30.0747 123.932 30.5823C124.206 31.0937 124.342 31.6818 124.342 32.3486C124.342 33.0154 124.206 33.6036 123.932 34.1149C123.66 34.6263 123.28 35.0271 122.795 35.3156C122.309 35.604 121.753 35.752 121.119 35.752ZM121.119 34.7892C121.554 34.7892 121.929 34.6862 122.249 34.4764C122.57 34.2667 122.823 33.982 123.01 33.6186C123.197 33.2552 123.289 32.83 123.289 32.3467C123.289 31.8635 123.196 31.4383 123.01 31.0749C122.825 30.7116 122.568 30.4268 122.238 30.2171C121.906 30.0073 121.528 29.9043 121.095 29.9043C120.662 29.9043 120.295 30.0073 119.971 30.2171C119.646 30.4268 119.39 30.7116 119.204 31.0749C119.017 31.4383 118.925 31.8616 118.925 32.3467C118.925 32.8319 119.021 33.244 119.204 33.613C119.39 33.9801 119.65 34.2704 119.982 34.4764C120.315 34.6862 120.694 34.7892 121.119 34.7892Z" fill="white"/>
<path d="M125.03 32.4254V29.1026H126.068V32.4254H125.03ZM126.07 32.4254C126.07 33.0679 126.143 33.5549 126.291 33.892C126.439 34.2292 126.642 34.4615 126.91 34.5851C127.174 34.7124 127.47 34.7724 127.8 34.7724C128.364 34.7724 128.802 34.5701 129.117 34.1599C129.432 33.7534 129.591 33.1878 129.591 32.4573H130.097C130.097 33.1428 129.996 33.7291 129.797 34.2236C129.597 34.7181 129.31 35.0927 128.934 35.353C128.559 35.6134 128.094 35.7445 127.549 35.7445C127.045 35.7445 126.602 35.6415 126.224 35.4392C125.843 35.2369 125.547 34.9129 125.341 34.4671C125.131 34.0213 125.028 33.4425 125.028 32.7345V32.4217H126.066V32.4254H126.07ZM129.655 35.5947L129.591 34.4015V29.1026H130.629V35.5947H129.653H129.655Z" fill="white"/>
<path d="M131.928 38.1945V29.1026H132.901L132.964 30.2957V38.1908H131.926H131.93V38.1945H131.928ZM135.166 35.752C134.619 35.752 134.141 35.6097 133.729 35.3212C133.317 35.0365 132.998 34.6357 132.775 34.1206C132.55 33.6055 132.438 33.0154 132.438 32.3486C132.438 31.6818 132.55 31.0787 132.775 30.5711C132.998 30.0597 133.317 29.6626 133.729 29.3779C134.141 29.0932 134.619 28.9471 135.166 28.9471C135.745 28.9471 136.257 29.0895 136.699 29.3779C137.141 29.6626 137.484 30.0635 137.733 30.5711C137.979 31.0824 138.103 31.6743 138.103 32.3486C138.103 33.0229 137.977 33.6055 137.733 34.1206C137.484 34.6357 137.141 35.0346 136.699 35.3212C136.257 35.6059 135.747 35.752 135.166 35.752ZM134.928 34.8042C135.335 34.8042 135.698 34.7012 136.013 34.4914C136.328 34.2816 136.579 33.9951 136.768 33.6223C136.956 33.2496 137.048 32.8263 137.048 32.3505C137.048 31.8747 136.96 31.4514 136.78 31.0787C136.602 30.7059 136.352 30.4156 136.034 30.2096C135.713 29.9998 135.35 29.8968 134.943 29.8968C134.561 29.8968 134.222 29.9998 133.922 30.2096C133.622 30.4194 133.388 30.7059 133.221 31.0787C133.051 31.4514 132.966 31.8747 132.966 32.3505C132.966 32.8263 133.051 33.2496 133.221 33.6223C133.392 33.9951 133.62 34.2854 133.916 34.4914C134.211 34.6975 134.55 34.8042 134.928 34.8042Z" fill="white"/>
<path d="M105.452 24.3393V15.2474H106.595L109.739 19.8982L112.882 15.2474H114.012V24.3393H112.919V17.0137L109.737 21.7545L106.555 17.0399V24.3374H105.452V24.3393Z" fill="white"/>
<path d="M117.61 24.4967C116.849 24.4967 116.251 24.3206 115.824 23.9703C115.393 23.6182 115.181 23.1349 115.181 22.5093C115.181 21.8519 115.4 21.3462 115.835 20.9978C116.272 20.6456 116.885 20.4714 117.673 20.4714H119.532V21.3405H117.908C117.301 21.3405 116.871 21.4398 116.613 21.6402C116.356 21.8406 116.231 22.1254 116.231 22.4981C116.231 22.8353 116.354 23.1012 116.605 23.2979C116.856 23.4927 117.209 23.5882 117.657 23.5882C118.029 23.5882 118.354 23.5096 118.629 23.3485C118.905 23.1874 119.12 22.957 119.272 22.6611C119.424 22.3614 119.499 22.0092 119.499 21.6046H119.941C119.941 22.4887 119.74 23.1911 119.343 23.7156C118.946 24.2401 118.365 24.5004 117.604 24.5004V24.4967H117.61ZM119.56 24.3393L119.508 23.2754V20.9116C119.508 20.4002 119.45 19.9788 119.337 19.6454C119.225 19.312 119.047 19.0572 118.803 18.8849C118.562 18.7126 118.245 18.6246 117.855 18.6246C117.499 18.6246 117.196 18.6976 116.941 18.84C116.686 18.9823 116.474 19.209 116.309 19.5218L115.374 19.1584C115.537 18.855 115.738 18.5946 115.972 18.3736C116.204 18.1525 116.478 17.9821 116.789 17.8678C117.102 17.7498 117.456 17.6918 117.853 17.6918C118.459 17.6918 118.959 17.8098 119.352 18.0495C119.746 18.2893 120.044 18.6377 120.244 19.1003C120.445 19.563 120.539 20.1361 120.529 20.8217L120.516 24.3412H119.555L119.559 24.3375L119.56 24.3393Z" fill="white"/>
<path d="M121.599 24.3393V17.8472H122.639V24.3393H121.599ZM122.173 20.8236C122.173 20.123 122.306 19.5536 122.575 19.1153C122.845 18.6789 123.188 18.3549 123.61 18.1432C124.031 17.9315 124.474 17.8248 124.94 17.8248V18.7969C124.558 18.7969 124.194 18.8606 123.844 18.9842C123.494 19.1078 123.203 19.3139 122.98 19.6023C122.755 19.887 122.641 20.2785 122.641 20.7711L122.174 20.8217L122.173 20.8236Z" fill="white"/>
<path d="M125.405 24.3393V15.2474H126.443V24.3393H125.405ZM126.421 22.249L125.757 21.5334L129.213 17.8472H130.525L126.417 22.249H126.421ZM129.501 24.3393L127.033 20.6138L127.71 19.887L130.789 24.3412H129.501V24.3393Z" fill="white"/>
<path d="M133.826 24.4967C133.193 24.4967 132.635 24.3506 132.151 24.0602C131.666 23.7699 131.287 23.3691 131.014 22.8596C130.74 22.3482 130.603 21.7601 130.603 21.0933C130.603 20.4265 130.74 19.8383 131.014 19.327C131.285 18.8156 131.662 18.4148 132.144 18.1244C132.625 17.8341 133.178 17.688 133.802 17.688C134.426 17.688 134.932 17.836 135.374 18.1357C135.816 18.4354 136.159 18.8512 136.401 19.3906C136.645 19.9301 136.765 20.5594 136.765 21.2862H131.4L131.662 21.0652C131.662 21.584 131.756 22.0317 131.939 22.4044C132.125 22.7772 132.387 23.0581 132.725 23.2548C133.062 23.4496 133.448 23.5451 133.879 23.5451C134.338 23.5451 134.724 23.4365 135.043 23.2211C135.357 23.0057 135.603 22.7172 135.777 22.3632L136.675 22.8184C136.512 23.1574 136.292 23.4515 136.017 23.7025C135.745 23.9535 135.423 24.1483 135.058 24.2869C134.69 24.4255 134.278 24.4967 133.83 24.4967H133.826ZM131.722 20.625L131.448 20.4152H135.931L135.659 20.6363C135.659 20.2204 135.577 19.8608 135.414 19.5574C135.251 19.2539 135.029 19.0217 134.75 18.8568C134.471 18.6939 134.152 18.6115 133.789 18.6115C133.425 18.6115 133.097 18.6939 132.783 18.8568C132.468 19.0198 132.209 19.2539 132.016 19.5499C131.821 19.8496 131.726 20.2036 131.726 20.6231H131.722V20.625Z" fill="white"/>
<path d="M136.813 18.7688V17.8472H140.932V18.7688H136.813ZM139.933 24.4967C139.3 24.4967 138.813 24.3337 138.466 24.0022C138.121 23.6725 137.949 23.208 137.949 22.6124V15.8206H138.989V22.5093C138.989 22.839 139.077 23.0919 139.255 23.2698C139.431 23.4478 139.682 23.5358 140.001 23.5358C140.104 23.5358 140.207 23.5208 140.306 23.4908C140.407 23.4609 140.537 23.3841 140.703 23.2642L141.106 24.109C140.881 24.2569 140.675 24.3581 140.497 24.4143C140.316 24.4723 140.128 24.4986 139.939 24.4986H139.933V24.4948V24.4967Z" fill="white"/>
<path d="M144.088 24.4967C143.612 24.4967 143.198 24.4236 142.84 24.2813C142.485 24.1389 142.188 23.9516 141.95 23.7175C141.71 23.4852 141.539 23.2305 141.438 22.9514L142.347 22.5749C142.495 22.869 142.714 23.1087 143.01 23.2904C143.304 23.4721 143.629 23.5639 143.983 23.5639C144.389 23.5639 144.73 23.4852 145.01 23.3241C145.285 23.163 145.426 22.9364 145.426 22.6423C145.426 22.3726 145.323 22.1572 145.12 21.9942C144.918 21.8313 144.614 21.6945 144.217 21.5915L143.593 21.4211C143.006 21.2656 142.545 21.0296 142.218 20.713C141.888 20.3984 141.725 20.0406 141.725 19.6398C141.725 19.0254 141.927 18.5459 142.328 18.2031C142.731 17.8603 143.331 17.6918 144.129 17.6918C144.511 17.6918 144.856 17.7498 145.169 17.8622C145.482 17.9746 145.748 18.1319 145.975 18.3342C146.201 18.5365 146.366 18.7763 146.468 19.0554L145.559 19.4581C145.446 19.164 145.259 18.9524 145.002 18.8212C144.745 18.6901 144.427 18.6264 144.054 18.6264C143.653 18.6264 143.344 18.7107 143.117 18.8812C142.89 19.0516 142.78 19.2876 142.78 19.5892C142.78 19.7615 142.873 19.9264 143.059 20.0762C143.243 20.2279 143.52 20.3515 143.883 20.4452L144.532 20.6156C144.955 20.7187 145.311 20.8723 145.596 21.0764C145.881 21.2787 146.098 21.5129 146.245 21.7695C146.394 22.0298 146.466 22.3052 146.466 22.5992C146.466 22.9907 146.363 23.326 146.153 23.6107C145.945 23.8954 145.662 24.1164 145.308 24.2682C144.952 24.4199 144.543 24.4948 144.086 24.4948H144.091V24.4911L144.088 24.4967Z" fill="white"/>
<path d="M109.571 12.7C108.643 12.7 107.824 12.4996 107.116 12.0969C106.406 11.6942 105.849 11.1397 105.446 10.4336C105.043 9.72745 104.843 8.92202 104.843 8.01357C104.843 7.10513 105.045 6.27161 105.446 5.56546C105.849 4.85931 106.407 4.30487 107.116 3.90216C107.824 3.49945 108.643 3.29903 109.571 3.29903C110.056 3.29903 110.528 3.3777 110.985 3.53879C111.445 3.69987 111.864 3.91715 112.247 4.19249C112.629 4.47158 112.934 4.78626 113.167 5.14027L112.297 5.73778C112.123 5.46244 111.89 5.21144 111.596 4.99229C111.302 4.77127 110.978 4.60082 110.629 4.48095C110.279 4.3592 109.927 4.29926 109.572 4.29926C108.872 4.29926 108.248 4.45659 107.702 4.77127C107.157 5.08595 106.73 5.52238 106.417 6.07681C106.104 6.63124 105.95 7.27558 105.95 8.01357C105.95 8.75157 106.104 9.35845 106.411 9.91662C106.717 10.4748 107.148 10.9131 107.697 11.2353C108.246 11.5556 108.872 11.7167 109.572 11.7167C110.161 11.7167 110.686 11.593 111.139 11.3477C111.594 11.1023 111.95 10.7595 112.213 10.3212C112.473 9.88478 112.603 9.37905 112.603 8.80963L113.654 8.73097C113.654 9.52703 113.481 10.2219 113.137 10.8157C112.792 11.4095 112.308 11.8721 111.694 12.2055C111.079 12.5389 110.373 12.7056 109.576 12.7056H109.571V12.7019V12.7ZM110.361 8.85646V7.90868H113.646V8.76655L113.129 8.85834H110.361V8.85646Z" fill="white"/>
<path d="M114.441 12.5427V3.45449H115.479V12.5464H114.441V12.5427Z" fill="white"/>
<path d="M119.587 12.7C118.953 12.7 118.393 12.5539 117.904 12.2636C117.413 11.9733 117.033 11.5724 116.755 11.0611C116.476 10.5497 116.341 9.96156 116.341 9.29475C116.341 8.62793 116.476 8.03979 116.75 7.52844C117.021 7.01708 117.404 6.61625 117.893 6.32967C118.38 6.04121 118.938 5.89323 119.562 5.89323C120.186 5.89323 120.769 6.03934 121.256 6.32967C121.744 6.61999 122.126 7.02083 122.399 7.52844C122.673 8.03979 122.81 8.62793 122.81 9.29475C122.81 9.96156 122.673 10.5497 122.399 11.0611C122.128 11.5724 121.747 11.9733 121.262 12.2636C120.777 12.5539 120.22 12.7 119.587 12.7ZM119.587 11.741C120.02 11.741 120.396 11.638 120.717 11.4282C121.037 11.2184 121.29 10.9337 121.477 10.5703C121.665 10.2069 121.757 9.78363 121.757 9.2985C121.757 8.81337 121.661 8.39005 121.477 8.02667C121.292 7.6633 121.035 7.37859 120.705 7.1688C120.374 6.95902 119.995 6.856 119.562 6.856C119.129 6.856 118.762 6.95902 118.438 7.1688C118.114 7.37859 117.857 7.6633 117.672 8.02667C117.484 8.39005 117.392 8.81524 117.392 9.2985C117.392 9.78175 117.488 10.1957 117.672 10.5647C117.857 10.9318 118.118 11.2184 118.451 11.4282C118.785 11.638 119.163 11.741 119.589 11.741H119.587Z" fill="white"/>
<path d="M123.666 12.5427V3.45449H124.704V11.3364L124.652 12.5445H123.664V12.5408L123.666 12.5427ZM126.9 12.7C126.355 12.7 125.875 12.5577 125.465 12.2729C125.053 11.9882 124.734 11.5874 124.509 11.0723C124.284 10.5572 124.174 9.96719 124.174 9.30037C124.174 8.63356 124.284 8.03043 124.509 7.52282C124.734 7.01147 125.051 6.61438 125.465 6.32967C125.877 6.04496 126.355 5.90261 126.9 5.90261C127.483 5.90261 127.993 6.04496 128.433 6.32967C128.875 6.61438 129.218 7.01522 129.466 7.52282C129.711 8.03417 129.835 8.62606 129.835 9.30037C129.835 9.97468 129.711 10.5572 129.466 11.0723C129.22 11.5874 128.875 11.9864 128.433 12.2729C127.991 12.5577 127.481 12.7 126.9 12.7ZM126.666 11.7522C127.073 11.7522 127.436 11.6492 127.751 11.4394C128.066 11.2296 128.317 10.9431 128.506 10.5703C128.69 10.1976 128.785 9.77427 128.785 9.2985C128.785 8.82274 128.697 8.39942 128.517 8.02668C128.339 7.65394 128.09 7.36361 127.772 7.15757C127.451 6.94778 127.086 6.84477 126.681 6.84477C126.299 6.84477 125.96 6.94778 125.662 7.15757C125.362 7.36735 125.128 7.65394 124.959 8.02668C124.788 8.39942 124.704 8.82274 124.704 9.2985C124.704 9.77427 124.788 10.1976 124.959 10.5703C125.129 10.9431 125.358 11.2334 125.654 11.4394C125.948 11.6492 126.284 11.7522 126.666 11.7522Z" fill="white"/>
<path d="M132.747 12.7C131.986 12.7 131.388 12.5239 130.961 12.1737C130.534 11.8215 130.318 11.3383 130.318 10.7127C130.318 10.0552 130.538 9.54949 130.972 9.20109C131.409 8.8527 132.022 8.67476 132.813 8.67476H134.67V9.54387H133.045C132.44 9.54387 132.009 9.64314 131.752 9.84356C131.497 10.044 131.37 10.3287 131.37 10.7014C131.37 11.0386 131.495 11.3046 131.746 11.5012C131.997 11.6979 132.35 11.7916 132.798 11.7916C133.17 11.7916 133.495 11.7129 133.772 11.5518C134.047 11.3907 134.263 11.1603 134.415 10.8644C134.566 10.5647 134.641 10.2126 134.641 9.80798H135.084C135.084 10.6921 134.883 11.3963 134.486 11.9189C134.089 12.4415 133.506 12.7038 132.747 12.7038V12.7ZM134.696 12.5427L134.643 11.4769V9.11306C134.643 8.60171 134.585 8.18027 134.473 7.84686C134.36 7.51345 134.182 7.25871 133.941 7.08639C133.697 6.91406 133.382 6.82603 132.991 6.82603C132.636 6.82603 132.331 6.89908 132.076 7.04143C131.821 7.18379 131.609 7.41043 131.446 7.72324L130.51 7.35986C130.673 7.05642 130.873 6.79606 131.107 6.57504C131.342 6.35401 131.613 6.18356 131.926 6.0693C132.239 5.9513 132.593 5.89323 132.991 5.89323C133.596 5.89323 134.096 6.01124 134.492 6.25099C134.885 6.49075 135.183 6.83914 135.382 7.30179C135.582 7.76444 135.676 8.33761 135.666 9.02315L135.655 12.5427H134.694H134.698H134.696Z" fill="white"/>
<path d="M136.735 12.5427V3.45449H137.773V12.5464H136.735V12.5427Z" fill="white"/>
<path d="M112.076 41.5304C112.076 42.0643 111.95 42.5531 111.701 42.9952C111.46 43.4297 111.088 43.78 110.586 44.0479C110.093 44.3063 109.488 44.4356 108.77 44.4356H107.554V47.4175H105.098V38.586H108.77C109.481 38.586 110.082 38.7115 110.575 38.9624C111.077 39.2134 111.452 39.56 111.703 40.002C111.954 40.4441 112.078 40.9535 112.078 41.5304H112.076ZM108.531 42.4838C109.224 42.4838 109.571 42.1673 109.571 41.5323C109.571 40.8973 109.224 40.5677 108.531 40.5677H107.552V42.4838H108.531ZM115.518 41.6316C115.794 41.2307 116.127 40.9142 116.521 40.6801C116.913 40.4459 117.336 40.3298 117.786 40.3298V42.9484H117.096C116.562 42.9484 116.165 43.0533 115.904 43.2612C115.646 43.4691 115.517 43.8325 115.517 44.3513V47.4194H113.062V40.3916H115.517V41.6316H115.518ZM119.909 39.7398C119.474 39.7398 119.124 39.6236 118.856 39.3895C118.597 39.1479 118.468 38.8463 118.468 38.4867C118.468 38.1271 118.597 37.8142 118.856 37.5726C119.124 37.331 119.474 37.2092 119.909 37.2092C120.344 37.2092 120.677 37.331 120.936 37.5726C121.204 37.8142 121.337 38.1196 121.337 38.4867C121.337 38.8538 121.204 39.146 120.936 39.3895C120.677 39.6236 120.334 39.7398 119.909 39.7398ZM121.123 40.3916V47.4194H118.667V40.3916H121.123ZM131.707 40.3279C132.593 40.3279 133.287 40.5958 133.787 41.1296C134.297 41.6634 134.552 42.3939 134.552 43.3211V47.4175H132.095V43.647C132.095 43.2705 131.99 42.9783 131.782 42.7704C131.574 42.5625 131.289 42.4576 130.929 42.4576C130.57 42.4576 130.287 42.5625 130.077 42.7704C129.867 42.9783 129.762 43.2705 129.762 43.647V47.4175H127.307V43.647C127.307 43.2705 127.202 42.9783 126.994 42.7704C126.794 42.5625 126.514 42.4576 126.155 42.4576C125.795 42.4576 125.499 42.5625 125.291 42.7704C125.083 42.9783 124.978 43.2705 124.978 43.647V47.4175H122.523V40.3897H124.978V41.3169C125.195 41.0153 125.474 40.7775 125.817 40.6033C126.168 40.4197 126.569 40.3279 127.02 40.3279C127.538 40.3279 127.997 40.4403 128.398 40.667C128.808 40.8917 129.128 41.2101 129.363 41.6185C129.614 41.2345 129.944 40.9254 130.352 40.6913C130.763 40.4497 131.212 40.3279 131.705 40.3279H131.707ZM142.615 43.8231C142.615 44.016 142.604 44.2071 142.577 44.4H137.928C137.953 44.784 138.058 45.0724 138.241 45.2635C138.434 45.4471 138.676 45.5388 138.968 45.5388C139.377 45.5388 139.669 45.3553 139.845 44.9882H142.463C142.354 45.4733 142.143 45.906 141.824 46.2899C141.515 46.6664 141.123 46.9624 140.647 47.1796C140.171 47.3969 139.645 47.5056 139.069 47.5056C138.376 47.5056 137.758 47.3595 137.214 47.0673C136.68 46.7751 136.257 46.3574 135.948 45.8142C135.648 45.271 135.496 44.6323 135.496 43.898C135.496 43.1638 135.646 42.5288 135.948 41.995C136.249 41.4518 136.667 41.0341 137.201 40.7419C137.743 40.4497 138.367 40.3036 139.069 40.3036C139.772 40.3036 140.377 40.4459 140.912 40.7288C141.446 41.0135 141.863 41.4218 142.165 41.9556C142.465 42.482 142.617 43.1038 142.617 43.8212L142.615 43.8231ZM140.11 43.2087C140.11 42.909 140.008 42.6749 139.808 42.5063C139.607 42.3303 139.356 42.2441 139.056 42.2441C138.757 42.2441 138.509 42.3284 138.316 42.4951C138.123 42.6543 138 42.8922 137.941 43.2087H140.11Z" fill="#E77831"/>
<path d="M87.1213 20.1287C82.2923 8.76094 68.0244 4.41727 58.4207 12.8911C50.749 19.6454 53.8072 27.0497 50.8033 35.3081C42.5957 57.7251 9.92431 57.6184 1.8778 35.6846C-8.854 6.88411 29.1299 -13.3864 47.0481 10.6378C45.0617 12.9417 43.4015 15.4647 43.2403 19.9151C43.0248 20.0219 42.2734 18.7332 42.2734 18.7332C38.2501 10.3137 28.2154 6.39898 19.5786 9.93911C11.7457 13.1552 6.00412 21.5204 9.54391 32.2494C14.9107 48.6575 39.5881 46.9456 43.3958 30.3163H27.8388V21.7358H44.4696C49.1374 -6.04014 89.1076 -7.38314 95.4358 20.1305H87.1213V20.1287Z" fill="white"/>
<path d="M95.9737 21.7339C96.564 25.5943 96.4028 28.8647 95.3834 32.6727C95.1679 33.5324 93.5039 39.3202 89.0496 44.0404C80.9488 52.5667 67.4286 53.4788 60.4559 50.4201C56.5938 48.7025 53.054 45.7543 53.054 45.7543C51.39 44.3588 50.2113 43.0739 49.353 42.1617C50.052 40.8206 50.7491 39.3745 51.448 37.8723C52.2538 36.1004 53.0053 34.3341 53.6461 32.6689C54.1839 33.8508 57.0791 40.0676 64.2168 42.5382C70.5993 44.7878 77.6301 43.0214 82.2436 38.8913C85.6223 35.8363 86.9659 32.1894 87.5018 30.4175H72.9079V21.8369H96.0861L95.9793 21.7301L95.9756 21.7339H95.9737Z" fill="#E77831"/>
</svg>
