<svg width="40" height="40" viewBox="0 0 40 40" fill="none" xmlns="http://www.w3.org/2000/svg">
<circle cx="20" cy="20" r="18.3352" fill="#ED8946"/>
<path d="M15.3772 21.3771H20.8772V22.7521H15.3772V21.3771ZM15.3772 17.9396H23.6272V19.3146H15.3772V17.9396ZM15.3772 24.8146H18.8147V26.1896H15.3772V24.8146Z" fill="white"/>
<path d="M25.6897 12.4396H23.6272V11.7521C23.6272 11.3874 23.4823 11.0377 23.2245 10.7798C22.9666 10.5219 22.6169 10.3771 22.2522 10.3771H16.7522C16.3875 10.3771 16.0378 10.5219 15.7799 10.7798C15.5221 11.0377 15.3772 11.3874 15.3772 11.7521V12.4396H13.3147C12.95 12.4396 12.6003 12.5844 12.3424 12.8423C12.0846 13.1002 11.9397 13.4499 11.9397 13.8146V28.2521C11.9397 28.6167 12.0846 28.9665 12.3424 29.2243C12.6003 29.4822 12.95 29.6271 13.3147 29.6271H25.6897C26.0544 29.6271 26.4041 29.4822 26.662 29.2243C26.9198 28.9665 27.0647 28.6167 27.0647 28.2521V13.8146C27.0647 13.4499 26.9198 13.1002 26.662 12.8423C26.4041 12.5844 26.0544 12.4396 25.6897 12.4396ZM16.7522 11.7521H22.2522V14.5021H16.7522V11.7521ZM25.6897 28.2521H13.3147V13.8146H15.3772V15.8771H23.6272V13.8146H25.6897V28.2521Z" fill="white"/>
</svg>
