<svg width="45" height="47" viewBox="0 0 45 47" fill="none" xmlns="http://www.w3.org/2000/svg">
<g filter="url(#filter0_d_249_795)">
<circle cx="22.3352" cy="20" r="18.3352" fill="#132F47"/>
</g>
<path d="M17.3374 26.0021V25.0021C17.3374 23.676 17.8642 22.4042 18.8019 21.4665C19.7396 20.5289 21.0113 20.0021 22.3374 20.0021M22.3374 20.0021C23.6635 20.0021 24.9353 20.5289 25.8729 21.4665C26.8106 22.4042 27.3374 23.676 27.3374 25.0021V26.0021M22.3374 20.0021C23.1331 20.0021 23.8961 19.686 24.4587 19.1234C25.0213 18.5608 25.3374 17.7977 25.3374 17.0021C25.3374 16.2064 25.0213 15.4434 24.4587 14.8808C23.8961 14.3181 23.1331 14.0021 22.3374 14.0021C21.5418 14.0021 20.7787 14.3181 20.2161 14.8808C19.6535 15.4434 19.3374 16.2064 19.3374 17.0021C19.3374 17.7977 19.6535 18.5608 20.2161 19.1234C20.7787 19.686 21.5418 20.0021 22.3374 20.0021ZM11.3374 26.0021V25.0021C11.3374 24.2064 11.6535 23.4434 12.2161 22.8808C12.7787 22.3181 13.5418 22.0021 14.3374 22.0021M14.3374 22.0021C14.8678 22.0021 15.3765 21.7914 15.7516 21.4163C16.1267 21.0412 16.3374 20.5325 16.3374 20.0021C16.3374 19.4716 16.1267 18.9629 15.7516 18.5879C15.3765 18.2128 14.8678 18.0021 14.3374 18.0021C13.807 18.0021 13.2983 18.2128 12.9232 18.5879C12.5481 18.9629 12.3374 19.4716 12.3374 20.0021C12.3374 20.5325 12.5481 21.0412 12.9232 21.4163C13.2983 21.7914 13.807 22.0021 14.3374 22.0021ZM33.3374 26.0021V25.0021C33.3374 24.2064 33.0213 23.4434 32.4587 22.8808C31.8961 22.3181 31.1331 22.0021 30.3374 22.0021M30.3374 22.0021C30.8678 22.0021 31.3765 21.7914 31.7516 21.4163C32.1267 21.0412 32.3374 20.5325 32.3374 20.0021C32.3374 19.4716 32.1267 18.9629 31.7516 18.5879C31.3765 18.2128 30.8678 18.0021 30.3374 18.0021C29.807 18.0021 29.2983 18.2128 28.9232 18.5879C28.5481 18.9629 28.3374 19.4716 28.3374 20.0021C28.3374 20.5325 28.5481 21.0412 28.9232 21.4163C29.2983 21.7914 29.807 22.0021 30.3374 22.0021Z" stroke="white" stroke-width="1.5" stroke-linecap="round" stroke-linejoin="round"/>
<defs>
<filter id="filter0_d_249_795" x="0" y="1.66479" width="44.6704" height="44.6705" filterUnits="userSpaceOnUse" color-interpolation-filters="sRGB">
<feFlood flood-opacity="0" result="BackgroundImageFix"/>
<feColorMatrix in="SourceAlpha" type="matrix" values="0 0 0 0 0 0 0 0 0 0 0 0 0 0 0 0 0 0 127 0" result="hardAlpha"/>
<feOffset dy="4"/>
<feGaussianBlur stdDeviation="2"/>
<feComposite in2="hardAlpha" operator="out"/>
<feColorMatrix type="matrix" values="0 0 0 0 0 0 0 0 0 0 0 0 0 0 0 0 0 0 0.25 0"/>
<feBlend mode="normal" in2="BackgroundImageFix" result="effect1_dropShadow_249_795"/>
<feBlend mode="normal" in="SourceGraphic" in2="effect1_dropShadow_249_795" result="shape"/>
</filter>
</defs>
</svg>
