<svg width="45" height="47" viewBox="0 0 45 47" fill="none" xmlns="http://www.w3.org/2000/svg">
<g filter="url(#filter0_d_249_811)">
<circle cx="22.3352" cy="20" r="18.3352" fill="#132F47"/>
</g>
<path d="M28.5249 12.4375H28.408V13.8125H28.5249C28.7072 13.8125 28.8821 13.8849 29.011 14.0139C29.14 14.1428 29.2124 14.3177 29.2124 14.5V28.25C29.2124 28.4323 29.14 28.6072 29.011 28.7361C28.8821 28.8651 28.7072 28.9375 28.5249 28.9375H16.1499C15.9676 28.9375 15.7927 28.8651 15.6638 28.7361C15.5348 28.6072 15.4624 28.4323 15.4624 28.25V14.5C15.4624 14.3177 15.5348 14.1428 15.6638 14.0139C15.7927 13.8849 15.9676 13.8125 16.1499 13.8125H16.2668V12.4375H16.1499C15.6029 12.4375 15.0783 12.6548 14.6915 13.0416C14.3047 13.4284 14.0874 13.953 14.0874 14.5V28.25C14.0874 28.797 14.3047 29.3216 14.6915 29.7084C15.0783 30.0952 15.6029 30.3125 16.1499 30.3125H28.5249C29.0719 30.3125 29.5965 30.0952 29.9833 29.7084C30.3701 29.3216 30.5874 28.797 30.5874 28.25V14.5C30.5874 13.953 30.3701 13.4284 29.9833 13.0416C29.5965 12.6548 29.0719 12.4375 28.5249 12.4375Z" fill="white"/>
<path d="M27.1499 11.0625H25.0874V9H19.5874V11.0625H17.5249V15.1875H27.1499V11.0625ZM25.7749 13.8125H18.8999V12.4375H20.9624V10.375H23.7124V12.4375H25.7749V13.8125Z" fill="white"/>
<path d="M18.2124 17.9375H26.4624V19.3125H18.2124V17.9375ZM18.2124 21.375H26.4624V22.75H18.2124V21.375ZM18.2124 24.8125H26.4624V26.1875H18.2124V24.8125Z" fill="white"/>
<defs>
<filter id="filter0_d_249_811" x="0" y="1.66479" width="44.6704" height="44.6705" filterUnits="userSpaceOnUse" color-interpolation-filters="sRGB">
<feFlood flood-opacity="0" result="BackgroundImageFix"/>
<feColorMatrix in="SourceAlpha" type="matrix" values="0 0 0 0 0 0 0 0 0 0 0 0 0 0 0 0 0 0 127 0" result="hardAlpha"/>
<feOffset dy="4"/>
<feGaussianBlur stdDeviation="2"/>
<feComposite in2="hardAlpha" operator="out"/>
<feColorMatrix type="matrix" values="0 0 0 0 0 0 0 0 0 0 0 0 0 0 0 0 0 0 0.25 0"/>
<feBlend mode="normal" in2="BackgroundImageFix" result="effect1_dropShadow_249_811"/>
<feBlend mode="normal" in="SourceGraphic" in2="effect1_dropShadow_249_811" result="shape"/>
</filter>
</defs>
</svg>
