<svg width="45" height="47" viewBox="0 0 45 47" fill="none" xmlns="http://www.w3.org/2000/svg">
<g filter="url(#filter0_d_249_784)">
<circle cx="22.3352" cy="20" r="18.3352" fill="#132F47"/>
</g>
<path d="M22.8374 13V30M22.8374 30H19.8374M22.8374 30H25.8374M31.8374 21L29.3374 16L26.8374 21M18.8374 21L16.3374 16L13.8374 21" stroke="white" stroke-width="1.5" stroke-linecap="round" stroke-linejoin="round"/>
<path d="M14.8374 16H15.8854C17.1494 16 18.3754 15.471 19.3614 14.5C21.3934 12.5 24.2814 12.5 26.3134 14.5C27.2994 15.471 28.5254 16 29.7894 16H30.8374" stroke="white" stroke-width="1.5" stroke-linecap="round" stroke-linejoin="round"/>
<path d="M29.3373 25C30.6923 25 31.8713 24.166 32.4843 22.935C32.8153 22.27 32.9803 21.938 32.6793 21.469C32.3773 21 31.8773 21 30.8773 21H27.7953C26.7963 21 26.2963 21 25.9953 21.469C25.6933 21.938 25.8583 22.27 26.1893 22.935C26.8033 24.166 27.9823 25 29.3373 25ZM16.3373 25C17.6923 25 18.8713 24.166 19.4843 22.935C19.8153 22.27 19.9803 21.938 19.6793 21.469C19.3773 21 18.8773 21 17.8773 21H14.7963C13.7973 21 13.2973 21 12.9963 21.469C12.6943 21.938 12.8593 22.27 13.1903 22.935C13.8033 24.166 14.9823 25 16.3373 25ZM24.3373 11.5C24.3373 11.8978 24.1793 12.2794 23.898 12.5607C23.6167 12.842 23.2352 13 22.8373 13C22.4395 13 22.058 12.842 21.7767 12.5607C21.4954 12.2794 21.3373 11.8978 21.3373 11.5C21.3373 11.1022 21.4954 10.7206 21.7767 10.4393C22.058 10.158 22.4395 10 22.8373 10C23.2352 10 23.6167 10.158 23.898 10.4393C24.1793 10.7206 24.3373 11.1022 24.3373 11.5Z" stroke="white" stroke-width="1.5"/>
<defs>
<filter id="filter0_d_249_784" x="0" y="1.66479" width="44.6704" height="44.6705" filterUnits="userSpaceOnUse" color-interpolation-filters="sRGB">
<feFlood flood-opacity="0" result="BackgroundImageFix"/>
<feColorMatrix in="SourceAlpha" type="matrix" values="0 0 0 0 0 0 0 0 0 0 0 0 0 0 0 0 0 0 127 0" result="hardAlpha"/>
<feOffset dy="4"/>
<feGaussianBlur stdDeviation="2"/>
<feComposite in2="hardAlpha" operator="out"/>
<feColorMatrix type="matrix" values="0 0 0 0 0 0 0 0 0 0 0 0 0 0 0 0 0 0 0.25 0"/>
<feBlend mode="normal" in2="BackgroundImageFix" result="effect1_dropShadow_249_784"/>
<feBlend mode="normal" in="SourceGraphic" in2="effect1_dropShadow_249_784" result="shape"/>
</filter>
</defs>
</svg>
