<svg width="45" height="47" viewBox="0 0 45 47" fill="none" xmlns="http://www.w3.org/2000/svg">
<g filter="url(#filter0_d_249_743)">
<circle cx="22.3352" cy="20" r="18.3352" fill="#132F47"/>
<path d="M19.7374 10.0021H13.9374C13.606 10.0021 13.3374 10.2707 13.3374 10.6021V14.4021C13.3374 14.7334 13.606 15.0021 13.9374 15.0021H19.7374C20.0688 15.0021 20.3374 14.7334 20.3374 14.4021V10.6021C20.3374 10.2707 20.0688 10.0021 19.7374 10.0021Z" stroke="white" stroke-width="1.5"/>
<path d="M25.2374 25.0021H19.4374C19.106 25.0021 18.8374 25.2707 18.8374 25.6021V29.4021C18.8374 29.7334 19.106 30.0021 19.4374 30.0021H25.2374C25.5688 30.0021 25.8374 29.7334 25.8374 29.4021V25.6021C25.8374 25.2707 25.5688 25.0021 25.2374 25.0021Z" stroke="white" stroke-width="1.5"/>
<path d="M30.7374 10.0021H24.9374C24.606 10.0021 24.3374 10.2707 24.3374 10.6021V14.4021C24.3374 14.7334 24.606 15.0021 24.9374 15.0021H30.7374C31.0688 15.0021 31.3374 14.7334 31.3374 14.4021V10.6021C31.3374 10.2707 31.0688 10.0021 30.7374 10.0021Z" stroke="white" stroke-width="1.5"/>
<path d="M16.8374 15.0021V18.5021C16.8374 19.0325 17.0481 19.5412 17.4232 19.9163C17.7983 20.2914 18.307 20.5021 18.8374 20.5021H25.8374C26.3678 20.5021 26.8765 20.2914 27.2516 19.9163C27.6267 19.5412 27.8374 19.0325 27.8374 18.5021V15.0021M22.3374 20.5021V25.0021" stroke="white" stroke-width="1.5"/>
</g>
<defs>
<filter id="filter0_d_249_743" x="-1.66479" y="0" width="48.0042" height="48.0042" filterUnits="userSpaceOnUse" color-interpolation-filters="sRGB">
<feFlood flood-opacity="0" result="BackgroundImageFix"/>
<feColorMatrix in="SourceAlpha" type="matrix" values="0 0 0 0 0 0 0 0 0 0 0 0 0 0 0 0 0 0 127 0" result="hardAlpha"/>
<feOffset dy="4"/>
<feGaussianBlur stdDeviation="2"/>
<feComposite in2="hardAlpha" operator="out"/>
<feColorMatrix type="matrix" values="0 0 0 0 0 0 0 0 0 0 0 0 0 0 0 0 0 0 0.25 0"/>
<feBlend mode="normal" in2="BackgroundImageFix" result="effect1_dropShadow_249_743"/>
<feBlend mode="normal" in="SourceGraphic" in2="effect1_dropShadow_249_743" result="shape"/>
</filter>
</defs>
</svg>
