<svg width="50" height="50" viewBox="0 0 50 50" fill="none" xmlns="http://www.w3.org/2000/svg">
<path d="M36.5875 19.2125L35.4917 21.1458C34.4604 22.9646 33.9438 23.8729 32.8208 23.9521C31.6958 24.0312 31.2208 23.3812 30.2688 22.0812C29.2104 20.625 28.5316 18.9281 28.2938 17.1437C28.0708 15.4791 27.9604 14.6479 27.6896 14.2375C27.2604 13.5854 26.3938 13.2271 25.7479 12.8479C24.0458 11.8479 23.1938 11.3479 22.9708 10.4958C22.7458 9.6479 23.2375 8.78123 24.2208 7.0479C25.2042 5.31456 25.6958 4.4479 26.5313 4.22081C27.3646 3.99165 28.2188 4.49373 29.9208 5.49373C30.5667 5.87498 31.3042 6.45623 32.075 6.5104C32.5583 6.54373 33.3229 6.22498 34.85 5.58956C36.4882 4.90369 38.2758 4.65253 40.0396 4.8604C41.6229 5.04998 42.4146 5.14581 42.9063 6.1729C43.4021 7.20415 42.8854 8.11248 41.8542 9.93123L40.7583 11.8604M36.5875 19.2125L37.4917 19.7437C37.9663 20.0217 38.4915 20.2021 39.0368 20.2744C39.582 20.3468 40.1361 20.3096 40.6668 20.1651C41.1974 20.0205 41.6939 19.7715 42.1271 19.4326C42.5603 19.0938 42.9215 18.6719 43.1896 18.1916C43.7444 17.2173 43.8953 16.0643 43.6098 14.98C43.3243 13.8957 42.6252 12.9665 41.6625 12.3916L40.7583 11.8604M36.5875 19.2125L40.7583 11.8604M14.5833 27.0833C14.5833 28.1884 14.1443 29.2482 13.3629 30.0296C12.5815 30.811 11.5217 31.25 10.4167 31.25C9.3116 31.25 8.25179 30.811 7.47039 30.0296C6.68899 29.2482 6.25 28.1884 6.25 27.0833C6.25 25.9782 6.68899 24.9184 7.47039 24.137C8.25179 23.3556 9.3116 22.9166 10.4167 22.9166C11.5217 22.9166 12.5815 23.3556 13.3629 24.137C14.1443 24.9184 14.5833 25.9782 14.5833 27.0833Z" stroke="#132F47" stroke-width="1.5"/>
<path d="M12.5 25.0002L27.0833 14.5835" stroke="#132F47" stroke-width="1.5" stroke-linejoin="round"/>
<path d="M14.5833 45.8333H29.1667M12.5 31.25L22.9167 45.8333" stroke="#132F47" stroke-width="1.5" stroke-linecap="round" stroke-linejoin="round"/>
</svg>
