<svg width="50" height="50" viewBox="0 0 50 50" fill="none" xmlns="http://www.w3.org/2000/svg">
<path d="M31.25 20.8333L40.7354 16.0917C41.053 15.933 41.4058 15.8581 41.7604 15.8741C42.115 15.89 42.4597 15.9963 42.7617 16.1829C43.0637 16.3695 43.313 16.6302 43.486 16.9401C43.6589 17.2501 43.7498 17.5992 43.75 17.9542V32.0458C43.7498 32.4008 43.6589 32.7499 43.486 33.0599C43.313 33.3698 43.0637 33.6305 42.7617 33.8171C42.4597 34.0037 42.115 34.11 41.7604 34.1259C41.4058 34.1419 41.053 34.067 40.7354 33.9083L31.25 29.1667V20.8333ZM6.25 16.6667C6.25 15.5616 6.68899 14.5018 7.47039 13.7204C8.25179 12.939 9.3116 12.5 10.4167 12.5H27.0833C28.1884 12.5 29.2482 12.939 30.0296 13.7204C30.811 14.5018 31.25 15.5616 31.25 16.6667V33.3333C31.25 34.4384 30.811 35.4982 30.0296 36.2796C29.2482 37.061 28.1884 37.5 27.0833 37.5H10.4167C9.3116 37.5 8.25179 37.061 7.47039 36.2796C6.68899 35.4982 6.25 34.4384 6.25 33.3333V16.6667Z" stroke="#132F47" stroke-width="2" stroke-linecap="round" stroke-linejoin="round"/>
</svg>
