<svg width="50" height="50" viewBox="0 0 50 50" fill="none" xmlns="http://www.w3.org/2000/svg">
<path d="M2.61429 39.7279C3.35893 39.7279 3.97589 39.4913 4.70268 39.0556L23.2027 28.1627C24.2009 27.5824 24.7455 26.9279 24.9455 26.1654V36.6234C24.9455 38.6386 26.1438 39.7279 27.5598 39.7279C28.3045 39.7279 28.9214 39.4913 29.6482 39.0556L48.1661 28.1627C49.4375 27.4002 50 26.5109 50 25.4574C50 24.4225 49.4375 23.5332 48.1661 22.7699L29.6482 11.877C28.9214 11.4413 28.3045 11.2056 27.5598 11.2056C26.1438 11.2056 24.9455 12.2949 24.9455 14.31V24.7681C24.7455 24.0056 24.2009 23.3529 23.2027 22.7716L4.70268 11.8788C3.95804 11.4422 3.35893 11.2065 2.61429 11.2065C1.19821 11.2056 0 12.2949 0 14.31V36.6225C0 38.6386 1.19821 39.7279 2.61429 39.7279ZM3.41339 36.369C3.14107 36.369 2.92232 36.2056 2.92232 35.8243V15.1091C2.92232 14.7279 3.14107 14.5645 3.41339 14.5645C3.54018 14.5645 3.66786 14.6181 3.84911 14.7091L21.1152 24.9493C21.3687 25.094 21.5143 25.2216 21.5143 25.4582C21.5143 25.7118 21.3687 25.8386 21.1143 25.9841L3.84911 36.2234C3.72186 36.3148 3.56998 36.3655 3.41339 36.369ZM28.3589 36.369C28.0866 36.369 27.8679 36.2056 27.8679 35.8243V15.1091C27.8679 14.7279 28.0866 14.5645 28.3589 14.5645C28.4857 14.5645 28.6125 14.6181 28.7946 14.7091L46.0598 24.9493C46.3143 25.094 46.4598 25.2216 46.4598 25.4582C46.4598 25.7118 46.3143 25.8386 46.0598 25.9841L28.7946 36.2234C28.6674 36.3148 28.5155 36.3655 28.3589 36.369Z" fill="#132F47"/>
</svg>
