<svg width="45" height="45" viewBox="0 0 45 45" fill="none" xmlns="http://www.w3.org/2000/svg">
<path d="M30.4167 9.58333C30.4167 5.65417 30.4167 3.69167 29.1958 2.47083C27.975 1.25 26.0125 1.25 22.0833 1.25C18.1542 1.25 16.1917 1.25 14.9708 2.47083C13.75 3.69167 13.75 5.65417 13.75 9.58333M1.25 26.25C1.25 18.3938 1.25 14.4646 3.69167 12.025C6.13333 9.58542 10.0604 9.58333 17.9167 9.58333H26.25C34.1063 9.58333 38.0354 9.58333 40.475 12.025C42.9146 14.4667 42.9167 18.3938 42.9167 26.25C42.9167 34.1063 42.9167 38.0354 40.475 40.475C38.0333 42.9146 34.1063 42.9167 26.25 42.9167H17.9167C10.0604 42.9167 6.13125 42.9167 3.69167 40.475C1.25208 38.0333 1.25 34.1063 1.25 26.25Z" stroke="#132F47" stroke-width="2.5"/>
<path d="M22.0834 33.1936C24.3855 33.1936 26.2501 31.6394 26.2501 29.7228C26.2501 27.8061 24.3855 26.2498 22.0834 26.2498C19.7813 26.2498 17.9167 24.6957 17.9167 22.7769C17.9167 20.8603 19.7813 19.3061 22.0834 19.3061M22.0834 33.1936C19.7813 33.1936 17.9167 31.6394 17.9167 29.7228M22.0834 33.1936V34.5832M22.0834 19.3061V17.9165M22.0834 19.3061C24.3855 19.3061 26.2501 20.8603 26.2501 22.7769" stroke="#132F47" stroke-width="2.5" stroke-linecap="round"/>
</svg>
