<svg width="50" height="50" viewBox="0 0 50 50" fill="none" xmlns="http://www.w3.org/2000/svg">
<g clip-path="url(#clip0_249_1029)">
<mask id="mask0_249_1029" style="mask-type:luminance" maskUnits="userSpaceOnUse" x="0" y="0" width="50" height="50">
<path d="M0 0H50V50H0V0Z" fill="white"/>
</mask>
<g mask="url(#mask0_249_1029)">
<path d="M42.9333 3.0791H5.07077C4.54235 3.07965 4.03577 3.28995 3.66232 3.66379C3.28887 4.03764 3.0791 4.54444 3.0791 5.07285V42.9354C3.0791 44.0354 3.97077 44.927 5.07077 44.927H42.9333C43.4617 44.927 43.9685 44.7173 44.3423 44.3438C44.7162 43.9704 44.9265 43.4638 44.927 42.9354V5.07285C44.9273 4.81095 44.8759 4.55157 44.7758 4.30955C44.6757 4.06754 44.5289 3.84764 44.3437 3.66245C44.1585 3.47726 43.9386 3.33041 43.6966 3.23031C43.4545 3.13021 43.1952 3.07883 42.9333 3.0791Z" fill="white"/>
<path d="M14.0416 2.0835V47.9168M24.002 2.0835V47.9168M33.9666 2.0835V47.9168M47.9166 14.0418H2.08325M47.9166 24.0043H2.08325M47.9166 33.9668H2.08325" stroke="#132F47" stroke-linecap="round" stroke-linejoin="round"/>
</g>
</g>
<defs>
<clipPath id="clip0_249_1029">
<rect width="50" height="50" fill="white"/>
</clipPath>
</defs>
</svg>
