<svg width="40" height="40" viewBox="0 0 40 40" fill="none" xmlns="http://www.w3.org/2000/svg">
<circle cx="20" cy="20" r="18.3352" fill="#ED8946"/>
<g clip-path="url(#clip0_249_948)">
<path d="M32.5023 23C32.5018 22.0699 32.213 21.1628 31.6758 20.4035C31.1386 19.6442 30.3792 19.07 29.5023 18.76V18C29.5023 15.6131 28.5541 13.3239 26.8663 11.636C25.1784 9.94821 22.8893 9 20.5023 9C18.1154 9 15.8262 9.94821 14.1384 11.636C12.4505 13.3239 11.5023 15.6131 11.5023 18V18.76C10.6268 19.0713 9.86907 19.646 9.33325 20.4052C8.79743 21.1643 8.50977 22.0708 8.50977 23C8.50977 23.9292 8.79743 24.8357 9.33325 25.5948C9.86907 26.354 10.6268 26.9287 11.5023 27.24C11.7289 27.3188 11.9708 27.3435 12.2086 27.3123C12.4465 27.281 12.6738 27.1946 12.8723 27.06C13.0665 26.9188 13.2247 26.7339 13.3341 26.5202C13.4435 26.3065 13.5012 26.0701 13.5023 25.83V18C13.5023 16.1435 14.2398 14.363 15.5526 13.0503C16.8653 11.7375 18.6458 11 20.5023 11C22.3588 11 24.1393 11.7375 25.4521 13.0503C26.7648 14.363 27.5023 16.1435 27.5023 18V25.83C27.5048 26.038 27.5506 26.2432 27.6367 26.4326C27.7227 26.6219 27.8473 26.7913 28.0023 26.93V27.5C28.0023 28.98 26.7123 29.5 25.5023 29.5H23.7223C23.5465 29.1955 23.2936 28.9428 22.989 28.7672C22.6843 28.5917 22.3388 28.4995 21.9872 28.5C21.6357 28.5006 21.2904 28.5938 20.9864 28.7703C20.6823 28.9467 20.4301 29.2003 20.2552 29.5053C20.0804 29.8103 19.989 30.156 19.9903 30.5076C19.9916 30.8591 20.0856 31.2042 20.2628 31.5078C20.4399 31.8115 20.694 32.0631 20.9994 32.2373C21.3048 32.4115 21.6507 32.5021 22.0023 32.5C22.3513 32.4979 22.6937 32.4045 22.9955 32.2291C23.2972 32.0536 23.5478 31.8023 23.7223 31.5H25.5023C28.1523 31.5 30.0023 29.86 30.0023 27.5V27C30.7483 26.6299 31.377 26.06 31.8184 25.3538C32.2598 24.6476 32.4965 23.8328 32.5023 23Z" fill="white"/>
<path d="M19.2522 25.7501C19.2522 26.0816 19.3839 26.3996 19.6183 26.634C19.8527 26.8684 20.1707 27.0001 20.5022 27.0001C20.8337 27.0001 21.1517 26.8684 21.3861 26.634C21.6205 26.3996 21.7522 26.0816 21.7522 25.7501C21.7522 25.4186 21.6205 25.1006 21.3861 24.8662C21.1517 24.6318 20.8337 24.5001 20.5022 24.5001C20.1707 24.5001 19.8527 24.6318 19.6183 24.8662C19.3839 25.1006 19.2522 25.4186 19.2522 25.7501ZM18.0022 19.5001C18.3337 19.5001 18.6517 19.3684 18.8861 19.134C19.1205 18.8996 19.2522 18.5816 19.2522 18.2501C19.253 18.0249 19.3146 17.8041 19.4305 17.6111C19.5464 17.418 19.7123 17.2599 19.9106 17.1533C20.109 17.0467 20.3325 16.9957 20.5574 17.0057C20.7824 17.0156 21.0005 17.0862 21.1887 17.2098C21.3768 17.3335 21.5281 17.5057 21.6265 17.7082C21.7249 17.9108 21.7668 18.1361 21.7477 18.3605C21.7286 18.5849 21.6492 18.7999 21.518 18.9829C21.3868 19.1659 21.2086 19.31 21.0022 19.4001C20.482 19.6262 20.0393 19.9994 19.7284 20.4737C19.4175 20.9481 19.252 21.5029 19.2522 22.0701V22.6301C19.2522 22.9616 19.3839 23.2796 19.6183 23.514C19.8527 23.7484 20.1707 23.8801 20.5022 23.8801C20.8337 23.8801 21.1517 23.7484 21.3861 23.514C21.6205 23.2796 21.7522 22.9616 21.7522 22.6301V22.0701C21.753 21.9894 21.777 21.9107 21.8213 21.8433C21.8656 21.7759 21.9284 21.7228 22.0022 21.6901C22.6217 21.4197 23.1566 20.9869 23.5504 20.4375C23.9441 19.888 24.182 19.2424 24.2389 18.5688C24.2958 17.8952 24.1696 17.2188 23.8736 16.6111C23.5776 16.0034 23.1228 15.487 22.5574 15.1165C21.992 14.7461 21.337 14.5353 20.6617 14.5066C19.9863 14.4778 19.3158 14.6321 18.7209 14.9532C18.1261 15.2743 17.6291 15.7502 17.2826 16.3306C16.936 16.9109 16.7528 17.5741 16.7522 18.2501C16.7522 18.5816 16.8839 18.8996 17.1183 19.134C17.3527 19.3684 17.6707 19.5001 18.0022 19.5001Z" fill="white"/>
</g>
<defs>
<clipPath id="clip0_249_948">
<rect width="24" height="24" fill="white" transform="translate(8.5022 9)"/>
</clipPath>
</defs>
</svg>
