<svg width="40" height="40" viewBox="0 0 40 40" fill="none" xmlns="http://www.w3.org/2000/svg">
<circle cx="20" cy="20" r="18.3352" fill="#ED8946"/>
<path d="M24.0022 12.3696C25.1294 12.3696 26.2104 12.8174 27.0074 13.6144C27.8044 14.4115 28.2522 15.4925 28.2522 16.6196C28.2522 17.7468 27.8044 18.8278 27.0074 19.6248C26.2104 20.4219 25.1294 20.8696 24.0022 20.8696H15.0022C14.2729 20.8696 13.5734 21.1594 13.0577 21.6751C12.5419 22.1908 12.2522 22.8903 12.2522 23.6196C12.2522 24.349 12.5419 25.0485 13.0577 25.5642C13.5734 26.0799 14.2729 26.3696 15.0022 26.3696H25.6922L24.9722 25.6496C24.8985 25.581 24.8394 25.4982 24.7984 25.4062C24.7574 25.3142 24.7354 25.2149 24.7336 25.1142C24.7318 25.0135 24.7504 24.9134 24.7881 24.82C24.8258 24.7266 24.8819 24.6418 24.9532 24.5706C25.0244 24.4994 25.1092 24.4432 25.2026 24.4055C25.296 24.3678 25.396 24.3493 25.4967 24.351C25.5974 24.3528 25.6967 24.3749 25.7887 24.4159C25.8807 24.4568 25.9635 24.5159 26.0322 24.5896L28.0322 26.5896C28.1726 26.7303 28.2515 26.9209 28.2515 27.1196C28.2515 27.3184 28.1726 27.509 28.0322 27.6496L26.0322 29.6496C25.9635 29.7233 25.8807 29.7824 25.7887 29.8234C25.6967 29.8644 25.5974 29.8864 25.4967 29.8882C25.396 29.89 25.296 29.8715 25.2026 29.8338C25.1092 29.796 25.0244 29.7399 24.9532 29.6687C24.8819 29.5975 24.8258 29.5126 24.7881 29.4192C24.7504 29.3258 24.7318 29.2258 24.7336 29.1251C24.7354 29.0244 24.7574 28.9251 24.7984 28.8331C24.8394 28.7411 24.8985 28.6583 24.9722 28.5896L25.6922 27.8696H15.0022C13.875 27.8696 12.794 27.4219 11.997 26.6248C11.2 25.8278 10.7522 24.7468 10.7522 23.6196C10.7522 22.4925 11.2 21.4115 11.997 20.6144C12.794 19.8174 13.875 19.3696 15.0022 19.3696H24.0022C24.7315 19.3696 25.431 19.0799 25.9467 18.5642C26.4625 18.0485 26.7522 17.349 26.7522 16.6196C26.7522 15.8903 26.4625 15.1908 25.9467 14.6751C25.431 14.1594 24.7315 13.8696 24.0022 13.8696H15.3572C15.1831 14.2999 14.8649 14.6562 14.4569 14.8776C14.0489 15.0989 13.5767 15.1715 13.1211 15.0828C12.6655 14.9941 12.255 14.7498 11.9598 14.3916C11.6646 14.0335 11.5031 13.5838 11.5031 13.1196C11.5031 12.6555 11.6646 12.2058 11.9598 11.8476C12.255 11.4895 12.6655 11.2451 13.1211 11.1565C13.5767 11.0678 14.0489 11.1404 14.4569 11.3617C14.8649 11.583 15.1831 11.9394 15.3572 12.3696H24.0022Z" fill="white"/>
</svg>
