<svg width="40" height="40" viewBox="0 0 40 40" fill="none" xmlns="http://www.w3.org/2000/svg">
<circle cx="20" cy="20" r="18.3352" fill="#ED8946"/>
<path d="M25.2101 13.5197L21.0154 9.33972C20.8785 9.20166 20.6923 9.12363 20.4979 9.12281C20.3034 9.12198 20.1166 9.19843 19.9785 9.33532L19.9741 9.33972L15.7941 13.5197H11.7021C11.5076 13.5197 11.3211 13.597 11.1835 13.7345C11.046 13.872 10.9688 14.0586 10.9688 14.2531V27.4531C10.9688 27.6475 11.046 27.8341 11.1835 27.9716C11.3211 28.1091 11.5076 28.1864 11.7021 28.1864H29.3021C29.4966 28.1864 29.6831 28.1091 29.8206 27.9716C29.9582 27.8341 30.0354 27.6475 30.0354 27.4531V14.2531C30.0354 14.0586 29.9582 13.872 29.8206 13.7345C29.6831 13.597 29.4966 13.5197 29.3021 13.5197H25.2101ZM20.5021 10.8944L23.1274 13.5197H17.8767L20.5021 10.8944ZM28.5688 26.7197H12.4354V14.9864H28.5688V26.7197ZM16.8354 19.3864C16.4464 19.3864 16.0734 19.2319 15.7983 18.9568C15.5233 18.6818 15.3688 18.3087 15.3688 17.9197C15.3688 17.5307 15.5233 17.1577 15.7983 16.8826C16.0734 16.6076 16.4464 16.4531 16.8354 16.4531C17.2244 16.4531 17.5975 16.6076 17.8725 16.8826C18.1476 17.1577 18.3021 17.5307 18.3021 17.9197C18.3021 18.3087 18.1476 18.6818 17.8725 18.9568C17.5975 19.2319 17.2244 19.3864 16.8354 19.3864ZM27.1021 25.2531H16.1021L18.3021 20.8531L20.1354 24.5197L23.4354 17.9197L27.1021 25.2531Z" fill="white"/>
</svg>
