<svg width="40" height="40" viewBox="0 0 40 40" fill="none" xmlns="http://www.w3.org/2000/svg">
<circle cx="20" cy="20" r="18.3352" fill="#ED8946"/>
<path d="M24.5022 25.8336V28.2696C24.5022 28.4123 24.4545 28.5313 24.3592 28.6266C24.2639 28.722 24.1449 28.7696 24.0022 28.7696C23.8595 28.7696 23.7405 28.722 23.6452 28.6266C23.5499 28.5313 23.5022 28.4123 23.5022 28.2696V25.0426C23.5022 24.78 23.5905 24.5603 23.7672 24.3836C23.9432 24.2076 24.1625 24.1196 24.4252 24.1196H27.6522C27.7949 24.1196 27.9139 24.1673 28.0092 24.2626C28.1045 24.358 28.1522 24.477 28.1522 24.6196C28.1522 24.7623 28.1045 24.8813 28.0092 24.9766C27.9139 25.072 27.7949 25.1196 27.6522 25.1196H25.1912L28.3062 28.2356C28.3995 28.329 28.4462 28.4423 28.4462 28.5756C28.4462 28.709 28.3995 28.825 28.3062 28.9236C28.2089 29.0336 28.0899 29.0856 27.9492 29.0796C27.8092 29.073 27.6902 29.021 27.5922 28.9236L24.5022 25.8336ZM19.5022 29.1196C18.2595 29.1196 17.0909 28.883 15.9962 28.4096C14.9015 27.9356 13.9492 27.2936 13.1392 26.4836C12.3285 25.673 11.6865 24.7203 11.2132 23.6256C10.7392 22.531 10.5022 21.3623 10.5022 20.1196C10.5022 18.877 10.7389 17.7083 11.2122 16.6136C11.6855 15.519 12.3279 14.5666 13.1392 13.7566C13.9505 12.9466 14.9029 12.3043 15.9962 11.8296C17.0915 11.3563 18.2602 11.1196 19.5022 11.1196C20.7442 11.1196 21.9129 11.3563 23.0082 11.8296C24.1029 12.3036 25.0552 12.946 25.8652 13.7566C26.6759 14.5666 27.3179 15.519 27.7912 16.6136C28.2652 17.709 28.5022 18.8776 28.5022 20.1196C28.5022 20.2996 28.4982 20.4896 28.4902 20.6896C28.4822 20.8896 28.4632 21.0793 28.4332 21.2586C28.4125 21.4006 28.3502 21.5156 28.2462 21.6036C28.1422 21.6916 28.0172 21.7356 27.8712 21.7356C27.7459 21.7356 27.6365 21.683 27.5432 21.5776C27.4499 21.4723 27.4132 21.3503 27.4332 21.2116C27.4665 21.0323 27.4865 20.8503 27.4932 20.6656C27.4999 20.481 27.5029 20.299 27.5022 20.1196C27.5022 19.7223 27.4749 19.328 27.4202 18.9366C27.3655 18.5453 27.2775 18.1576 27.1562 17.7736H23.1212C23.1972 18.1583 23.2505 18.546 23.2812 18.9366C23.3132 19.328 23.3292 19.7223 23.3292 20.1196C23.3292 20.2996 23.3259 20.4883 23.3192 20.6856C23.3125 20.8836 23.3012 21.0726 23.2852 21.2526C23.2645 21.3946 23.2055 21.5106 23.1082 21.6006C23.0109 21.6906 22.8909 21.7353 22.7482 21.7346C22.6229 21.7346 22.5092 21.684 22.4072 21.5826C22.3052 21.482 22.2645 21.362 22.2852 21.2226C22.3019 21.044 22.3132 20.8603 22.3192 20.6716C22.3252 20.483 22.3285 20.299 22.3292 20.1196C22.3292 19.7223 22.3135 19.328 22.2822 18.9366C22.2509 18.546 22.1975 18.1583 22.1222 17.7736H16.8822C16.8069 18.1583 16.7535 18.546 16.7222 18.9366C16.6909 19.3273 16.6752 19.7216 16.6752 20.1196C16.6752 20.5176 16.6909 20.912 16.7222 21.3026C16.7535 21.6933 16.8069 22.081 16.8822 22.4656H20.3872C20.5292 22.4656 20.6479 22.5133 20.7432 22.6086C20.8385 22.704 20.8865 22.823 20.8872 22.9656C20.8879 23.1083 20.8399 23.2273 20.7432 23.3226C20.6465 23.418 20.5279 23.4656 20.3872 23.4656H17.1212C17.3599 24.3236 17.6729 25.1456 18.0602 25.9316C18.4475 26.7176 18.9282 27.45 19.5022 28.1286C19.6949 28.1286 19.8872 28.1263 20.0792 28.1216C20.2712 28.117 20.4572 28.1 20.6372 28.0706C20.7665 28.0506 20.8779 28.0863 20.9712 28.1776C21.0645 28.269 21.1112 28.3796 21.1112 28.5096C21.1112 28.6556 21.0715 28.7773 20.9922 28.8746C20.9129 28.972 20.8022 29.031 20.6602 29.0516C20.4802 29.081 20.2902 29.1 20.0902 29.1086C19.8902 29.1173 19.6942 29.121 19.5022 29.1196ZM11.8482 22.4656H15.8832C15.8072 22.081 15.7539 21.6933 15.7232 21.3026C15.6912 20.9113 15.6752 20.517 15.6752 20.1196C15.6752 19.7223 15.6909 19.328 15.7222 18.9366C15.7535 18.5453 15.8069 18.1576 15.8822 17.7736H11.8492C11.7279 18.1583 11.6399 18.546 11.5852 18.9366C11.5305 19.3273 11.5029 19.7216 11.5022 20.1196C11.5015 20.5176 11.5289 20.912 11.5842 21.3026C11.6395 21.6933 11.7275 22.081 11.8482 22.4656ZM18.2292 28.0156C17.7239 27.3336 17.2949 26.6103 16.9422 25.8456C16.5889 25.081 16.3052 24.2876 16.0912 23.4656H12.2562C12.8162 24.6743 13.6232 25.6823 14.6772 26.4896C15.7305 27.2963 16.9145 27.805 18.2292 28.0156ZM12.2562 16.7736H16.0912C16.2792 15.939 16.5465 15.139 16.8932 14.3736C17.2399 13.6096 17.6852 12.893 18.2292 12.2236C16.9025 12.421 15.7152 12.923 14.6672 13.7296C13.6205 14.537 12.8169 15.5516 12.2562 16.7736ZM17.1212 16.7736H21.8832C21.6572 15.9156 21.3412 15.1 20.9352 14.3266C20.5285 13.5533 20.0509 12.815 19.5022 12.1116C18.9409 12.789 18.4602 13.5206 18.0602 14.3066C17.6602 15.0926 17.3472 15.915 17.1212 16.7736ZM22.9142 16.7736H26.7482C26.1882 15.5516 25.3845 14.534 24.3372 13.7206C23.2899 12.9073 22.1025 12.4083 20.7752 12.2236C21.2805 12.9056 21.7002 13.6323 22.0342 14.4036C22.3682 15.175 22.6615 15.965 22.9142 16.7736Z" fill="white"/>
</svg>
