<svg width="40" height="40" viewBox="0 0 40 40" fill="none" xmlns="http://www.w3.org/2000/svg">
<circle cx="20" cy="20" r="18.3352" fill="#ED8946"/>
<path d="M25.5502 15.2171C26.4248 16.1151 27.0622 17.2166 27.4051 18.4223H29.7522V22.5486H27.4051C27.0626 23.7553 26.4252 24.8577 25.5502 25.7565L26.7258 27.7915L23.1536 29.854L21.9807 27.819C20.7645 28.1257 19.4912 28.1257 18.2751 27.819L17.1008 29.854L13.5286 27.7915L14.7042 25.7565C13.8292 24.8577 13.1918 23.7553 12.8493 22.5486H10.5022V18.4236H12.8493C13.1918 17.217 13.8292 16.1145 14.7042 15.2158L13.5272 13.1821L17.0981 11.1196H17.1022L18.2764 13.1519C19.4926 12.8451 20.7659 12.8451 21.9821 13.1519L23.1522 11.1196H23.1549L26.7272 13.1821L25.5516 15.2171H25.5502ZM24.2522 20.4861C24.2522 19.3921 23.8176 18.3429 23.044 17.5693C22.2704 16.7957 21.2212 16.3611 20.1272 16.3611C19.0332 16.3611 17.984 16.7957 17.2104 17.5693C16.4368 18.3429 16.0022 19.3921 16.0022 20.4861C16.0022 21.5801 16.4368 22.6294 17.2104 23.4029C17.984 24.1765 19.0332 24.6111 20.1272 24.6111C21.2212 24.6111 22.2704 24.1765 23.044 23.4029C23.8176 22.6294 24.2522 21.5801 24.2522 20.4861Z" fill="white"/>
</svg>
